<?xml version="1.0" encoding="utf-8"?>
<!-- Generator: Adobe Illustrator 20.1.0, SVG Export Plug-In . SVG Version: 6.00 Build 0)  -->
<svg version="1.1" id="Layer_1" xmlns="http://www.w3.org/2000/svg" xmlns:xlink="http://www.w3.org/1999/xlink" x="0px" y="0px"
	 viewBox="0 0 43.9 40.6" style="enable-background:new 0 0 43.9 40.6;" xml:space="preserve">
<style type="text/css">
	.st0{display:none;}
	.st1{fill:#943837;}
	.st2{fill:url(#SVGID_1_);}
	.st3{display:none;fill:#860038;}
</style>
<path class="st0" d="M51.1,13.1h7.2v2.1h-11l7.4-12.9h-6.2V0.1h9.9L51.1,13.1z"/>
<path class="st0" d="M63.2,0.1v9.1c0,1.3,0.2,2.2,0.6,2.8c0.6,0.9,1.5,1.3,2.7,1.3s2-0.4,2.7-1.3c0.4-0.6,0.6-1.5,0.6-2.8V0.1h2.3
	v9.7c0,1.6-0.5,2.9-1.5,3.9c-1.1,1.1-2.5,1.7-4.1,1.7s-3-0.6-4.1-1.7c-1-1-1.5-2.3-1.5-3.9V0.1H63.2z"/>
<path class="st0" d="M76.5,0.1l4.2,10.4l4.2-10.4h2.5l-6.8,16.2L74,0.1H76.5z"/>
<path class="st0" d="M91.5,0.1v15.1h-2.3V0.1H91.5z"/>
<path class="st0" d="M106.3,1v2.7C105,2.6,103.6,2,102.2,2c-1.5,0-2.9,0.6-3.9,1.7c-1.1,1.1-1.6,2.5-1.6,4.1s0.5,2.9,1.6,4
	s2.4,1.6,3.9,1.6c0.8,0,1.5-0.1,2-0.4c0.3-0.1,0.6-0.3,1-0.5c0.3-0.2,0.7-0.5,1.1-0.8v2.7c-1.3,0.7-2.7,1.1-4.1,1.1
	c-2.2,0-4-0.8-5.5-2.3s-2.3-3.3-2.3-5.5c0-1.9,0.6-3.6,1.9-5.1c1.6-1.8,3.6-2.8,6.1-2.8C103.7-0.1,105,0.2,106.3,1z"/>
<path class="st0" d="M132.6,1v2.7c-1.3-1.1-2.7-1.7-4.1-1.7c-1.5,0-2.9,0.6-3.9,1.7c-1.1,1.1-1.6,2.5-1.6,4.1s0.5,2.9,1.6,4
	s2.4,1.6,3.9,1.6c0.8,0,1.5-0.1,2-0.4c0.3-0.1,0.6-0.3,1-0.5c0.3-0.2,0.7-0.5,1.1-0.8v2.7c-1.3,0.7-2.7,1.1-4.1,1.1
	c-2.2,0-4-0.8-5.5-2.3s-2.3-3.3-2.3-5.5c0-1.9,0.6-3.6,1.9-5.1c1.6-1.8,3.6-2.8,6.1-2.8C130.1-0.1,131.4,0.2,132.6,1z"/>
<path class="st0" d="M144.7,11.6h-6.4l-1.7,3.7h-2.5l7.5-16l7.2,16h-2.5L144.7,11.6z M143.8,9.4l-2.2-5.1l-2.3,5.1H143.8z"/>
<path class="st0" d="M155.8,8.8l4.7,6.4h-2.8L153.4,9H153v6.2h-2.3V0.1h2.7c2,0,3.4,0.4,4.3,1.1c1,0.8,1.5,1.9,1.5,3.3
	c0,1.1-0.3,2-0.9,2.8C157.6,8.1,156.8,8.6,155.8,8.8z M153,7.1h0.7c2.2,0,3.2-0.8,3.2-2.5c0-1.5-1-2.3-3.1-2.3H153L153,7.1L153,7.1z
	"/>
<path class="st0" d="M167.8,8.8l4.7,6.4h-2.8L165.4,9H165v6.2h-2.3V0.1h2.7c2,0,3.4,0.4,4.3,1.1c1,0.8,1.5,1.9,1.5,3.3
	c0,1.1-0.3,2-0.9,2.8S168.8,8.6,167.8,8.8z M165,7.1h0.7c2.2,0,3.2-0.8,3.2-2.5c0-1.5-1-2.3-3.1-2.3H165L165,7.1L165,7.1z"/>
<path class="st0" d="M50.3,34.8c-0.3-0.4-0.8-0.6-1.4-0.6c-1.3,0-2.1,1-2.1,2.3c0,1.2,0.8,2.2,2.1,2.2c0.6,0,1.1-0.3,1.5-0.8
	l0.6,0.5c-0.2,0.2-0.8,1-2.1,1c-1.8,0-2.9-1.5-2.9-2.9c0-1.8,1.2-3,2.9-3c0.7,0,1.5,0.3,2,0.9L50.3,34.8z"/>
<path class="st0" d="M53.2,36.4c0-1.7,1.2-3,3-3c1.7,0,3,1.3,3,3s-1.2,3-3,3C54.5,39.4,53.2,38.1,53.2,36.4z M58.3,36.4
	c0-1.2-0.8-2.3-2.1-2.3s-2.1,1-2.1,2.3c0,1.2,0.8,2.3,2.1,2.3S58.3,37.6,58.3,36.4z"/>
<path class="st0" d="M61.9,33.6h1l3.1,4.7l0,0v-4.7h0.8v5.6h-1l-3.2-4.7l0,0v4.7h-0.8L61.9,33.6L61.9,33.6z"/>
<path class="st0" d="M70,38c0.3,0.4,0.7,0.6,1.2,0.6s1.1-0.3,1.1-0.9c0-1.3-2.8-0.5-2.8-2.7c0-0.7,0.6-1.6,1.9-1.6
	c0.6,0,1.2,0.1,1.6,0.6l-0.6,0.6c-0.2-0.3-0.6-0.5-1-0.5c-0.8,0-1.1,0.5-1.1,0.9c0,1.4,2.8,0.6,2.8,2.6c0,1.1-0.9,1.8-2,1.8
	c-0.7,0-1.4-0.2-1.8-0.8L70,38z"/>
<path class="st0" d="M76.5,33.6v3.5c0,0.7,0.4,1.6,1.4,1.6c1.1,0,1.4-0.9,1.4-1.6v-3.5h0.8v3.6c0,1.3-1,2.2-2.2,2.2
	s-2.2-0.9-2.2-2.2v-3.6H76.5z"/>
<path class="st0" d="M83.1,33.6h0.8v4.9h2.6v0.7h-3.4V33.6z"/>
<path class="st0" d="M89.3,34.3h-1.8v-0.7h4.4v0.7h-1.8v4.9h-0.8V34.3z"/>
<path class="st0" d="M94.3,33.6h0.8v5.6h-0.8V33.6z"/>
<path class="st0" d="M98.1,33.6h1l3.2,4.6l0,0v-4.7h0.8v5.7h-1l-3.2-4.7l0,0v4.7h-0.8V33.6z"/>
<path class="st0" d="M110.9,36.1v2.8c-0.6,0.3-1.5,0.5-2.1,0.5c-1.9,0-3-1.4-3-3c0-1.7,1.2-3,3-3c1,0,1.7,0.3,2.1,0.7l-0.5,0.6
	c-0.5-0.4-1-0.6-1.6-0.6c-1.3,0-2.1,1-2.1,2.3s1,2.3,2.2,2.3c0.5,0,1-0.1,1.4-0.3v-1.6H109v-0.7H110.9z"/>
<path class="st0" d="M117.8,33.6h3.7v0.7h-2.9V36h2.7v0.7h-2.7v1.8h3v0.7h-3.8C117.8,39.2,117.8,33.6,117.8,33.6z"/>
<path class="st0" d="M124.2,33.6h1l3.1,4.7l0,0v-4.7h0.8v5.6h-1l-3.2-4.7l0,0v4.7h-0.8L124.2,33.6L124.2,33.6z"/>
<path class="st0" d="M137,36.1v2.8c-0.6,0.3-1.5,0.5-2.1,0.5c-1.9,0-3-1.4-3-3c0-1.7,1.2-3,2.9-3c1,0,1.7,0.3,2.1,0.7l-0.5,0.6
	c-0.5-0.4-1-0.6-1.6-0.6c-1.3,0-2.1,1-2.1,2.3s1,2.3,2.2,2.3c0.5,0,1-0.1,1.4-0.3v-1.6H135v-0.7H137z"/>
<path class="st0" d="M140,33.6h0.8v5.6H140V33.6z"/>
<path class="st0" d="M143.9,33.6h1l3.1,4.7l0,0v-4.7h0.8v5.6h-1l-3.2-4.7l0,0v4.7h-0.8L143.9,33.6L143.9,33.6z"/>
<path class="st0" d="M151.8,33.6h3.7v0.7h-2.9V36h2.7v0.7h-2.7v1.8h3v0.7h-3.8V33.6z"/>
<path class="st0" d="M158.3,33.6h3.7v0.7h-2.9V36h2.7v0.7h-2.7v1.8h3v0.7h-3.8V33.6z"/>
<path class="st0" d="M164.8,33.6h2c1.4,0,1.8,0.9,1.8,1.6s-0.5,1.4-1.4,1.5l1.6,2.6h-1l-1.4-2.5h-0.9v2.4h-0.8L164.8,33.6
	L164.8,33.6z M165.6,36.1h1c0.6,0,1.2-0.1,1.2-0.9s-0.6-0.9-1.2-0.9h-1V36.1z"/>
<path class="st0" d="M171.5,38c0.3,0.4,0.7,0.6,1.2,0.6s1.1-0.3,1.1-0.9c0-1.3-2.8-0.5-2.8-2.7c0-0.7,0.6-1.6,1.9-1.6
	c0.6,0,1.2,0.1,1.6,0.6l-0.6,0.6c-0.2-0.3-0.6-0.5-1-0.5c-0.8,0-1.1,0.5-1.1,0.9c0,1.4,2.8,0.6,2.8,2.6c0,1.1-0.9,1.8-2,1.8
	c-0.7,0-1.4-0.2-1.8-0.8L171.5,38z"/>
<rect x="5.9" y="5.9" transform="matrix(0.7071 -0.7071 0.7071 0.7071 -8.406 20.2938)" class="st1" width="28.7" height="28.7"/>
<linearGradient id="SVGID_1_" gradientUnits="userSpaceOnUse" x1="6.1432" y1="-2739.3967" x2="43.7472" y2="-2739.3967" gradientTransform="matrix(1 0 0 -1 0 -2715.5225)">
	<stop  offset="0" style="stop-color:#FFFFFF"/>
	<stop  offset="0.4231" style="stop-color:#FFFFFF"/>
	<stop  offset="1" style="stop-color:#943837"/>
</linearGradient>
<path class="st2" d="M43.4,23.7l0.5,0.2v-0.1c-0.7,1.5-1.1,1.8-1.5,2.8c-1.8-0.5-5-1.8-6.9-2.1c-0.1,0-0.1,0-0.2,0
	c-0.5-0.1-0.8-0.2-1.3-0.2c-0.5-0.1-1.1-0.2-1.5-0.4c-4.2-0.8-9.1-1.2-13.6-0.8c-4.6,0.4-8.7,1.4-12.4,3C7.1,25.3,8,24.9,9,24.3
	c0.2-0.1,0.5-0.2,0.6-0.4c0,0,0,0,0.1,0c0-0.1,0.1,0,0.2-0.1c0.4-0.1,0.6-0.2,0.9-0.4c0.7-0.2,1.4-0.5,2.1-0.7
	c0.2,0,0.5-0.1,0.6-0.2c0.6-0.1,1.2-0.4,1.8-0.5h0.1c0-0.1,0.1,0,0.2-0.1c0.4,0,0.8-0.1,1.2-0.2c0.2,0,0.5-0.1,0.7-0.1
	s0.4-0.1,0.5-0.1c0,0,0-0.1,0.1,0c0.4,0,0.6-0.1,0.8-0.1c0.1,0,0.4,0,0.5-0.1c0.2,0,0.4,0,0.5-0.1c0.1,0,0.2,0,0.2,0
	c0.1,0,0.2,0,0.2,0c0.1,0,0.2,0,0.2,0c0.1,0,0.2,0,0.2,0c0.1,0,0.2,0,0.2,0c0.2,0,0.5,0,0.7,0c0.9-0.1,1.8,0,2.7-0.1
	c0.6-0.1,1.1,0.1,1.8,0c0.5,0,1.1,0,1.6,0.1c0.6,0,1.2,0,1.6,0.1c0.6,0.1,1.2,0.1,1.9,0.2c0.2,0,0.5,0,0.6,0.1
	c0.5,0.1,1.1,0.1,1.5,0.2c0.5,0.1,1.1,0.1,1.5,0.2C38.1,22.3,40.6,22.8,43.4,23.7z"/>
<circle class="st3" cx="114.3" cy="7.7" r="2"/>
<rect x="45.7" y="43.7" class="st3" width="128.9" height="0.6"/>
</svg>
