<?xml version="1.0" encoding="utf-8"?>
<!-- Generator: Adobe Illustrator 20.1.0, SVG Export Plug-In . SVG Version: 6.00 Build 0)  -->
<svg version="1.1" id="Layer_1" xmlns="http://www.w3.org/2000/svg" xmlns:xlink="http://www.w3.org/1999/xlink" x="0px" y="0px"
	 viewBox="0 0 497 477.1" style="enable-background:new 0 0 497 477.1;" xml:space="preserve">
<style type="text/css">
	.st0{fill:#FFFFFF;stroke:#FFFFFF;stroke-miterlimit:10;}
	.st1{fill:#2196F3;stroke:#FFFFFF;stroke-miterlimit:10;}
</style>
<g id="ekxpTS.tif">
	<g>
		<path class="st0" d="M276.2,28.2c1.1,5.7,0.6,12.8,3.8,16.7c3.2,3.8,10.4,4.2,15.7,6.5c9.6,4.2,19.1,8.6,28.5,13.2
			c2.8,1.4,4.7,1.5,7.2-0.3c4.3-3.1,8.8-6,13.3-8.9c13.7-8.7,30.1-7,41.7,4.4c5.8,5.7,11.6,11.5,17.3,17.3c11.6,11.9,13,26.7,4,40.5
			c-2.9,4.5-5.8,9-8.9,13.3c-1.7,2.3-1.6,4.1-0.4,6.8c5.9,13.3,11.7,26.8,17,40.3c1.3,3.4,2.8,5.2,6.4,5.7c4.9,0.7,9.8,1.7,14.7,2.8
			c16.1,3.5,25.1,13.3,26.3,29.6c0.7,10.1,0.5,20.3-0.1,30.5c-0.7,11.5-6.9,19.9-16.9,25.5c-0.7,0.4-1.4,0.8-2.8,1.7
			c1.8,1.3,3.2,2.3,4.6,3.3c25.6,18.1,41.6,42.4,46.5,73.4c8.8,55.6-30.1,111.4-85.2,122.8c-5.4,1.1-10.8,1.8-16.1,2.2
			c10.6,0.2,21.2,0.6,31.8,1.3c15.6-2,31.3-3.2,47-2.9c8.3-1,16.7-1.9,25-2.8V0.5h-249c0.7,0.3,1.5,0.8,2.2,1
			C265,4.6,273.3,13,276.2,28.2z"/>
		<path class="st0" d="M8.8,461.3c0.1,0.2,0.3,0.4,0.4,0.6c13.5,0.1,27,1.5,40.1,3.9c13.2,2,26.4,5,39.6,7.4c9.4-0.1,18.9,0,28.3,0
			c70.3,0.5,140.5,2.6,210.8,2c15.1-0.1,30.2-0.2,45.3-0.1c-36.3-3.6-68.3-24.7-86.7-58.9c-0.8-1.5-2.6-2.4-3.9-3.6
			c-1.2,1.6-2.9,3.1-3.4,4.9c-1.4,5.6-2.1,11.4-3.3,17.1c-3.1,14.3-15.6,24.4-30.1,24.5c-8.5,0.1-17,0-25.5,0
			c-17.8,0-29.4-9.9-32.5-27.5c-0.8-4.7-1.6-9.5-2.9-14.1c-0.5-1.7-2.3-3.5-3.9-4.3c-14-6.1-28-12.1-42.2-17.9
			c-1.7-0.7-4.3-0.6-5.8,0.3c-4.6,2.6-8.9,5.8-13.4,8.7c-14.4,9.2-30.4,7.5-42.5-4.4c-5.6-5.5-11.1-11-16.6-16.6
			c-11.6-12-13-26.6-4-40.5c2.9-4.5,6.2-8.7,8.7-13.4c1-1.8,1-4.8,0.2-6.7c-5.4-13.4-11.4-26.5-16.7-40c-1.5-3.7-3.1-5.8-7.1-6.3
			c-5.4-0.8-10.8-1.9-16.1-3.2C12.5,270,4.3,261.7,1.8,248.1c-0.2-0.9-0.8-1.8-1.3-2.6v215.1C2.4,458,6.9,458.7,8.8,461.3z"/>
		<path class="st1" d="M25.7,273.2c5.3,1.3,10.7,2.4,16.1,3.2c4,0.6,5.6,2.6,7.1,6.3c5.3,13.4,11.3,26.6,16.7,40
			c0.8,1.9,0.7,4.9-0.2,6.7c-2.5,4.7-5.8,8.9-8.7,13.4c-9.1,13.9-7.7,28.5,4,40.5c5.5,5.6,11,11.1,16.6,16.6
			c12.1,11.9,28.1,13.5,42.5,4.4c4.5-2.9,8.8-6.1,13.4-8.7c1.5-0.9,4.2-1,5.8-0.3c14.1,5.8,28.2,11.7,42.2,17.9
			c1.6,0.7,3.4,2.6,3.9,4.3c1.3,4.6,2.1,9.4,2.9,14.1c3.1,17.6,14.8,27.5,32.5,27.5c8.5,0,17,0.1,25.5,0c14.5-0.1,27-10.2,30.1-24.5
			c1.2-5.7,2-11.5,3.3-17.1c0.4-1.8,2.2-3.3,3.4-4.9c1.3,1.2,3.2,2.1,3.9,3.6c18.4,34.2,50.4,55.3,86.7,58.9
			c6.4,0,12.9,0.1,19.3,0.3c5.3-0.4,10.7-1.1,16.1-2.2c55.1-11.5,94-67.2,85.2-122.8c-4.9-31-20.9-55.3-46.5-73.4
			c-1.4-1-2.8-2-4.6-3.3c1.4-0.9,2.1-1.3,2.8-1.7c10-5.6,16.2-13.9,16.9-25.5c0.6-10.1,0.8-20.4,0.1-30.5
			c-1.2-16.3-10.2-26-26.3-29.6c-4.9-1.1-9.8-2.1-14.7-2.8c-3.6-0.5-5.1-2.3-6.4-5.7c-5.4-13.6-11.1-27-17-40.3
			c-1.2-2.7-1.2-4.5,0.4-6.8c3.1-4.3,6-8.8,8.9-13.3c9.1-13.8,7.6-28.6-4-40.5c-5.7-5.8-11.5-11.6-17.3-17.3
			c-11.6-11.4-27.9-13.2-41.7-4.4c-4.5,2.9-9,5.7-13.3,8.9c-2.5,1.8-4.4,1.7-7.2,0.3c-9.4-4.6-18.9-9-28.5-13.2
			c-5.3-2.3-12.5-2.6-15.7-6.5c-3.3-3.9-2.8-11-3.8-16.7C273.3,13,265,4.6,249.7,1.5c-0.8-0.2-1.5-0.7-2.2-1h-31
			c-2.2,0.6-4.5,1.1-6.7,1.7c-12.4,3.4-21.2,13.9-23,27.3c-0.5,3.8-1.5,7.5-1.6,11.3c-0.1,4.7-2.9,5.7-6.6,7.1
			c-13.1,5.2-26,10.8-38.9,16.6c-2.8,1.2-4.7,1.7-7.2-0.3c-3.6-2.9-7.5-5.5-11.3-8.2c-14.2-10.1-31.1-9.1-43.7,2.9
			c-6.2,5.8-12.2,11.9-18,18c-10.8,11.4-12,26-3.4,39.3c3.1,4.8,6.5,9.3,9.3,14.2c0.9,1.5,0.9,4.1,0.2,5.8
			c-5.7,14-11.8,27.8-17.4,41.8c-1.2,3-2.7,4.2-5.6,4.7c-5.2,0.9-10.4,2-15.6,3c-13.7,2.7-22.6,11.7-25.3,25.5
			c-0.2,1.1-0.8,2.1-1.3,3.2v31c0.4,0.9,1.1,1.7,1.3,2.6C4.3,261.7,12.5,270,25.7,273.2z M477.6,367.1
			c-0.4,49.9-39.9,92.3-92.8,92.3c-53,0-92.4-42.2-92.6-92.8c-0.2-51,41.7-92.5,92.9-92.4C436.1,274.2,478,316.1,477.6,367.1z
			 M232.8,309.9c-45.5,0-81.7-36-81.6-81.3c0-45.6,36.6-82.3,81.8-81.9c45.6,0.4,81.6,36.4,81.7,81.6
			C314.6,273.2,277.8,309.9,232.8,309.9z M20.1,218.1c0.1-6.5,2.7-9.7,9.2-11c8.5-1.7,16.9-3.3,25.4-5c5.7-1.1,9.6-4.2,11-10.1
			c4.6-19.4,11.9-37.7,22.5-54.6c3.3-5.2,2.9-10.4-0.8-15.4c-4.6-6.3-9.2-12.7-13.7-19.1c-4.4-6.2-4.2-9.6,1-14.9
			c5.5-5.6,11-11.1,16.6-16.6c4.3-4.2,7.9-4.5,13-1.1c7,4.7,14.1,9.5,20.9,14.5c5.4,4,10.6,4,16.2,0.5
			c17.1-10.6,35.2-18.7,55.1-22.4c4.6-0.9,7.7-3.9,8.7-8.6c1.8-8.5,3.4-16.9,5-25.4c1.7-9.2,4-11.2,13.3-11.3c7,0,14-0.1,21,0.1
			c7.1,0.2,9.9,2.7,11.2,9.5c1.6,8.3,3.3,16.6,4.9,24.9c1.2,6,4.5,9.7,10.6,11.2c19.4,4.5,37.7,11.9,54.6,22.6
			c4.9,3.1,9.7,2.9,14.5-0.4c7.1-4.9,14.2-9.9,21.4-14.8c5.8-3.9,9.1-3.6,14.1,1.4c5.3,5.3,10.6,10.6,15.9,15.9
			c5.1,5.2,5.4,8.4,1.2,14.5c-4.7,6.9-9.4,13.8-14.2,20.5c-3.6,4.9-3.8,9.9-0.7,14.9c10.8,17.5,19.3,36,23.1,56.5
			c1,5.3,5.2,7.8,10.4,8.8c8.7,1.6,17.3,3.3,25.9,5c6.1,1.2,8.5,3.5,8.7,9.7c0.3,8.5,0.3,17,0,25.5c-0.2,5.8-2.7,8.4-8.4,9.4
			c-11.1,2.1-22.1,4.3-33.3,5.9c-4.3,0.6-8.9-0.7-13.4-1c-24.8-1.6-47.4,5-68.3,18.1c-1,0.6-2,1.1-2.9,1.7
			c13.1-27.9,15.4-56,4.3-84.6c-8.2-21.2-22.5-37.6-42.1-49.2c-39.2-23.2-89.4-16.3-121.1,16.5c-31.9,33-37.2,83.4-12.5,121.9
			c15.1,23.5,36.5,38.4,64,44c27.2,5.5,52.4,0,76.1-14.6c-0.6,1.3-1.1,2.6-1.8,3.8c-12.4,23.9-16.2,49.1-10,75.4
			c0.9,3.8-0.7,5.7-3.9,5.9c-10.2,0.9-12.8,7.9-14,16.4c-1.1,7.2-2.6,14.4-4.1,21.5c-1.1,5.5-4.1,8.1-9.7,8.2
			c-8.5,0.1-17,0.1-25.5,0c-5.1-0.1-8.6-2.6-9.7-7.7c-1.7-8.3-3.5-16.6-4.9-24.9c-1.2-7.4-5-11.8-12.6-13.5
			c-18-4-34.9-10.9-50.6-20.7c-6.7-4.2-12.7-3.9-18.9,0.7c-6.2,4.5-12.6,8.8-18.9,13.1c-5.9,4-9.6,3.7-14.6-1.3
			c-5.3-5.5-10.6-11.1-15.8-16.7c-4.3-4.6-4.6-8.2-1-13.5c4.7-7.1,9.5-14.1,14.5-20.9c3.7-5.1,4-10.1,0.7-15.3
			c-10.8-17.4-18.9-35.9-22.9-56.1c-0.9-4.5-4-7.3-8.5-8.2c-8.6-1.8-17.3-3.4-25.9-5.1c-8.4-1.6-10.6-4.2-10.7-12.7
			C20.1,232.8,20,225.4,20.1,218.1z"/>
		<path class="st0" d="M216.5,0.5c-2.2,0.6-4.5,1.1-6.7,1.7c-12.4,3.4-21.2,13.9-23,27.3c-0.5,3.8-1.5,7.5-1.6,11.3
			c-0.1,4.7-2.9,5.7-6.6,7.1c-13.1,5.2-26,10.8-38.9,16.6c-2.8,1.2-4.7,1.7-7.2-0.3c-3.6-2.9-7.5-5.5-11.3-8.2
			c-14.2-10.1-31.1-9.1-43.7,2.9c-6.2,5.8-12.2,11.9-18,18c-10.8,11.4-12,26-3.4,39.3c3.1,4.8,6.5,9.3,9.3,14.2
			c0.9,1.5,0.9,4.1,0.2,5.8c-5.7,14-11.8,27.8-17.4,41.8c-1.2,3-2.7,4.2-5.6,4.7c-5.2,0.9-10.4,2-15.6,3
			c-13.7,2.7-22.6,11.7-25.3,25.5c-0.2,1.1-0.8,2.1-1.3,3.2c0-71.3,0-142.5,0-214C72.5,0.5,144.5,0.5,216.5,0.5z"/>
		<path class="st0" d="M319.8,277.6c13.1-27.9,15.4-56,4.3-84.6c-8.2-21.2-22.5-37.6-42.1-49.2c-39.2-23.2-89.4-16.3-121.1,16.5
			c-31.9,33-37.2,83.4-12.5,121.9c15.1,23.5,36.5,38.4,64,44c27.2,5.5,52.4,0,76.1-14.6c-0.6,1.3-1.1,2.6-1.8,3.8
			c-12.4,23.9-16.2,49.1-10,75.4c0.9,3.8-0.7,5.7-3.9,5.9c-10.2,0.9-12.8,7.9-14,16.4c-1.1,7.2-2.6,14.4-4.1,21.5
			c-1.1,5.5-4.1,8.1-9.7,8.2c-8.5,0.1-17,0.1-25.5,0c-5.1-0.1-8.6-2.6-9.7-7.7c-1.7-8.3-3.5-16.6-4.9-24.9
			c-1.2-7.4-5-11.8-12.6-13.5c-18-4-34.9-10.9-50.6-20.7c-6.7-4.2-12.7-3.9-18.9,0.7c-6.2,4.5-12.6,8.8-18.9,13.1
			c-5.9,4-9.6,3.7-14.6-1.3c-5.3-5.5-10.6-11.1-15.8-16.7c-4.3-4.6-4.6-8.2-1-13.5c4.7-7.1,9.5-14.1,14.5-20.9
			c3.7-5.1,4-10.1,0.7-15.3c-10.8-17.4-18.9-35.9-22.9-56.1c-0.9-4.5-4-7.3-8.5-8.2c-8.6-1.8-17.3-3.4-25.9-5.1
			c-8.4-1.6-10.6-4.2-10.7-12.7c0-7.3,0-14.7,0-22c0.1-6.5,2.7-9.7,9.2-11c8.5-1.7,16.9-3.3,25.4-5c5.7-1.1,9.6-4.2,11-10.1
			c4.6-19.4,11.9-37.7,22.5-54.6c3.3-5.2,2.9-10.4-0.8-15.4c-4.6-6.3-9.2-12.7-13.7-19.1c-4.4-6.2-4.2-9.6,1-14.9
			c5.5-5.6,11-11.1,16.6-16.6c4.3-4.2,7.9-4.5,13-1.1c7,4.7,14.1,9.5,20.9,14.5c5.4,4,10.6,4,16.2,0.5
			c17.1-10.6,35.2-18.7,55.1-22.4c4.6-0.9,7.7-3.9,8.7-8.6c1.8-8.5,3.4-16.9,5-25.4c1.7-9.2,4-11.2,13.3-11.3c7,0,14-0.1,21,0.1
			c7.1,0.2,9.9,2.7,11.2,9.5c1.6,8.3,3.3,16.6,4.9,24.9c1.2,6,4.5,9.7,10.6,11.2c19.4,4.5,37.7,11.9,54.6,22.6
			c4.9,3.1,9.7,2.9,14.5-0.4c7.1-4.9,14.2-9.9,21.4-14.8c5.8-3.9,9.1-3.6,14.1,1.4c5.3,5.3,10.6,10.6,15.9,15.9
			c5.1,5.2,5.4,8.4,1.2,14.5c-4.7,6.9-9.4,13.8-14.2,20.5c-3.6,4.9-3.8,9.9-0.7,14.9c10.8,17.5,19.3,36,23.1,56.5
			c1,5.3,5.2,7.8,10.4,8.8c8.7,1.6,17.3,3.3,25.9,5c6.1,1.2,8.5,3.5,8.7,9.7c0.3,8.5,0.3,17,0,25.5c-0.2,5.8-2.7,8.4-8.4,9.4
			c-11.1,2.1-22.1,4.3-33.3,5.9c-4.3,0.6-8.9-0.7-13.4-1c-24.8-1.6-47.4,5-68.3,18.1C321.8,276.5,320.8,277,319.8,277.6z"/>
		<path class="st0" d="M232.8,309.9c-45.5,0-81.7-36-81.6-81.3c0-45.6,36.6-82.3,81.8-81.9c45.6,0.4,81.6,36.4,81.7,81.6
			C314.6,273.2,277.8,309.9,232.8,309.9z"/>
		<path class="st0" d="M385.1,274.2c51,0,92.9,41.9,92.5,92.9c-0.4,49.9-39.9,92.3-92.8,92.3c-53,0-92.4-42.2-92.6-92.8
			C292,315.6,333.9,274.1,385.1,274.2z M450.1,339.8c-2.5-5-4-9.6-6.7-13.3c-3.3-4.5-7.6-8.4-11.4-12.5c-9.6-10.3-21.9-10.5-32-0.4
			c-17.6,17.5-35.1,35.1-52.5,52.7c-2,2-3.6,4.8-4.4,7.5c-3.7,13.1-7,26.3-10.4,39.5c-2.1,8,1.4,11.4,9.6,9.2
			c13-3.4,26-6.8,38.9-10.4c2.1-0.6,4.4-1.7,6-3.3c18.6-18.4,37.2-36.7,55.4-55.5C445.9,349.8,447.5,344.6,450.1,339.8z"/>
		<path class="st1" d="M450.1,339.8c-2.6,4.9-4.2,10.1-7.6,13.5c-18.2,18.7-36.8,37.1-55.4,55.5c-1.6,1.5-3.8,2.7-6,3.3
			c-12.9,3.6-25.9,7-38.9,10.4c-8.2,2.1-11.6-1.2-9.6-9.2c3.4-13.2,6.7-26.4,10.4-39.5c0.8-2.7,2.4-5.5,4.4-7.5
			c17.4-17.7,34.9-35.2,52.5-52.7c10.1-10,22.3-9.8,32,0.4c3.9,4.1,8.1,8,11.4,12.5C446.1,330.2,447.7,334.8,450.1,339.8z
			 M357.7,374.2c7.8,7.2,15.1,14.1,22.6,20.7c0.8,0.7,3.5,0.2,4.4-0.6c16.4-16.2,32.6-32.4,48.8-48.8c3.9-3.9,3.7-7.2-0.2-11.3
			c-3.3-3.5-6.8-6.9-10.2-10.3c-6.6-6.6-8.7-6.6-15.2-0.1c-15.5,15.4-30.9,30.8-46.4,46.3C360.3,371.2,359.2,372.5,357.7,374.2z
			 M347.4,408.9c7.8-2.2,14.2-3.9,21.8-6c-5.9-5.6-10.9-10.3-16.8-15.9C350.7,394.5,349.2,401,347.4,408.9z"/>
		<path class="st0" d="M357.7,374.2c1.6-1.7,2.6-3,3.8-4.1c15.4-15.4,30.9-30.9,46.4-46.3c6.5-6.5,8.6-6.5,15.2,0.1
			c3.4,3.4,6.9,6.8,10.2,10.3c3.9,4.1,4.1,7.4,0.2,11.3c-16.2,16.3-32.4,32.6-48.8,48.8c-0.9,0.9-3.6,1.3-4.4,0.6
			C372.8,388.3,365.5,381.4,357.7,374.2z"/>
		<path class="st0" d="M347.4,408.9c1.8-7.8,3.3-14.3,5-22c5.9,5.6,10.9,10.3,16.8,15.9C361.6,404.9,355.2,406.7,347.4,408.9z"/>
	</g>
</g>
</svg>
