<?xml version="1.0" encoding="utf-8"?>
<!-- Generator: Adobe Illustrator 20.1.0, SVG Export Plug-In . SVG Version: 6.00 Build 0)  -->
<svg version="1.1" id="Layer_1" xmlns="http://www.w3.org/2000/svg" xmlns:xlink="http://www.w3.org/1999/xlink" x="0px" y="0px"
	 viewBox="0 0 172.4 41.2" style="enable-background:new 0 0 172.4 41.2;" xml:space="preserve">
<style type="text/css">
	.st0{display:none;}
	.st1{fill:#FF3D3D;}
	.st2{display:none;fill:#860038;}
</style>
<path class="st0" d="M51,13.8h7.2v2.1h-11L54.6,3h-6.2V0.8h9.9L51,13.8z"/>
<path class="st0" d="M63.1,0.8v9.1c0,1.3,0.2,2.2,0.6,2.8c0.6,0.9,1.5,1.3,2.7,1.3s2-0.4,2.7-1.3c0.4-0.6,0.6-1.5,0.6-2.8V0.8H72
	v9.7c0,1.6-0.5,2.9-1.5,3.9c-1.1,1.1-2.5,1.7-4.1,1.7s-3-0.6-4.1-1.7c-1-1-1.5-2.3-1.5-3.9V0.8H63.1z"/>
<path class="st0" d="M76.4,0.8l4.2,10.4l4.2-10.4h2.5L80.5,17L73.9,0.8H76.4z"/>
<path class="st0" d="M91.4,0.8v15.1h-2.3V0.8H91.4z"/>
<path class="st0" d="M106.2,1.7v2.7c-1.3-1.1-2.7-1.7-4.1-1.7c-1.5,0-2.9,0.6-3.9,1.7c-1.1,1.1-1.6,2.5-1.6,4.1s0.5,2.9,1.6,4
	s2.4,1.6,3.9,1.6c0.8,0,1.5-0.1,2-0.4c0.3-0.1,0.6-0.3,1-0.5c0.3-0.2,0.7-0.5,1.1-0.8v2.7c-1.3,0.7-2.7,1.1-4.1,1.1
	c-2.2,0-4-0.8-5.5-2.3s-2.3-3.3-2.3-5.5c0-1.9,0.6-3.6,1.9-5.1c1.6-1.8,3.6-2.8,6.1-2.8C103.6,0.6,104.9,0.9,106.2,1.7z"/>
<path class="st0" d="M132.5,1.7v2.7c-1.3-1.1-2.7-1.7-4.1-1.7c-1.5,0-2.9,0.6-3.9,1.7c-1.1,1.1-1.6,2.5-1.6,4.1s0.5,2.9,1.6,4
	s2.4,1.6,3.9,1.6c0.8,0,1.5-0.1,2-0.4c0.3-0.1,0.6-0.3,1-0.5c0.3-0.2,0.7-0.5,1.1-0.8v2.7c-1.3,0.7-2.7,1.1-4.1,1.1
	c-2.2,0-4-0.8-5.5-2.3s-2.3-3.3-2.3-5.5c0-1.9,0.6-3.6,1.9-5.1c1.6-1.8,3.6-2.8,6.1-2.8C130,0.6,131.3,0.9,132.5,1.7z"/>
<path class="st0" d="M144.6,12.3h-6.4l-1.7,3.7H134l7.5-16l7.2,16h-2.5L144.6,12.3z M143.7,10.1L141.5,5l-2.3,5.1H143.7z"/>
<path class="st0" d="M155.7,9.5l4.7,6.4h-2.8l-4.3-6.2h-0.4v6.2h-2.3V0.8h2.7c2,0,3.4,0.4,4.3,1.1c1,0.8,1.5,1.9,1.5,3.3
	c0,1.1-0.3,2-0.9,2.8C157.5,8.8,156.7,9.3,155.7,9.5z M152.9,7.8h0.7c2.2,0,3.2-0.8,3.2-2.5c0-1.5-1-2.3-3.1-2.3h-0.8L152.9,7.8
	L152.9,7.8z"/>
<path class="st0" d="M167.7,9.5l4.7,6.4h-2.8l-4.3-6.2h-0.4v6.2h-2.3V0.8h2.7c2,0,3.4,0.4,4.3,1.1c1,0.8,1.5,1.9,1.5,3.3
	c0,1.1-0.3,2-0.9,2.8S168.7,9.3,167.7,9.5z M164.9,7.8h0.7c2.2,0,3.2-0.8,3.2-2.5c0-1.5-1-2.3-3.1-2.3h-0.8L164.9,7.8L164.9,7.8z"/>
<path class="st1" d="M50,15.8h7.2v2.1h-11L53.6,5h-6.2V2.8h9.9L50,15.8z"/>
<path class="st1" d="M62.1,2.8v9.1c0,1.3,0.2,2.2,0.6,2.8c0.6,0.9,1.5,1.3,2.7,1.3s2-0.4,2.7-1.3c0.4-0.6,0.6-1.5,0.6-2.8V2.8H71
	v9.7c0,1.6-0.5,2.9-1.5,3.9c-1.1,1.1-2.5,1.7-4.1,1.7s-3-0.6-4.1-1.7c-1-1-1.5-2.3-1.5-3.9V2.8H62.1z"/>
<path class="st1" d="M75.4,2.8l4.2,10.4l4.2-10.4h2.5L79.5,19L72.9,2.8H75.4z"/>
<path class="st1" d="M90.4,2.8v15.1h-2.3V2.8H90.4z"/>
<path class="st1" d="M105.2,3.7v2.7c-1.3-1.1-2.7-1.7-4.1-1.7c-1.5,0-2.9,0.6-3.9,1.7c-1.1,1.1-1.6,2.5-1.6,4.1s0.5,2.9,1.6,4
	s2.4,1.6,3.9,1.6c0.8,0,1.5-0.1,2-0.4c0.3-0.1,0.6-0.3,1-0.5c0.3-0.2,0.7-0.5,1.1-0.8v2.7c-1.3,0.7-2.7,1.1-4.1,1.1
	c-2.2,0-4-0.8-5.5-2.3s-2.3-3.3-2.3-5.5c0-1.9,0.6-3.6,1.9-5.1c1.6-1.8,3.6-2.8,6.1-2.8C102.6,2.6,103.9,2.9,105.2,3.7z"/>
<path class="st1" d="M131.5,3.7v2.7c-1.3-1.1-2.7-1.7-4.1-1.7c-1.5,0-2.9,0.6-3.9,1.7c-1.1,1.1-1.6,2.5-1.6,4.1s0.5,2.9,1.6,4
	s2.4,1.6,3.9,1.6c0.8,0,1.5-0.1,2-0.4c0.3-0.1,0.6-0.3,1-0.5c0.3-0.2,0.7-0.5,1.1-0.8v2.7c-1.3,0.7-2.7,1.1-4.1,1.1
	c-2.2,0-4-0.8-5.5-2.3s-2.3-3.3-2.3-5.5c0-1.9,0.6-3.6,1.9-5.1c1.6-1.8,3.6-2.8,6.1-2.8C129,2.6,130.3,2.9,131.5,3.7z"/>
<path class="st1" d="M143.6,14.3h-6.4l-1.7,3.7H133l7.5-16l7.2,16h-2.5L143.6,14.3z M142.7,12.1L140.5,7l-2.3,5.1H142.7z"/>
<path class="st1" d="M154.7,11.5l4.7,6.4h-2.8l-4.3-6.2h-0.4v6.2h-2.3V2.8h2.7c2,0,3.4,0.4,4.3,1.1c1,0.8,1.5,1.9,1.5,3.3
	c0,1.1-0.3,2-0.9,2.8C156.5,10.8,155.7,11.3,154.7,11.5z M151.9,9.8h0.7c2.2,0,3.2-0.8,3.2-2.5c0-1.5-1-2.3-3.1-2.3h-0.8L151.9,9.8
	L151.9,9.8z"/>
<path class="st1" d="M166.7,11.5l4.7,6.4h-2.8l-4.3-6.2h-0.4v6.2h-2.3V2.8h2.7c2,0,3.4,0.4,4.3,1.1c1,0.8,1.5,1.9,1.5,3.3
	c0,1.1-0.3,2-0.9,2.8S167.7,11.3,166.7,11.5z M163.9,9.8h0.7c2.2,0,3.2-0.8,3.2-2.5c0-1.5-1-2.3-3.1-2.3h-0.8L163.9,9.8L163.9,9.8z"
	/>
<path class="st0" d="M50.2,35.5c-0.3-0.4-0.8-0.6-1.4-0.6c-1.3,0-2.1,1-2.1,2.3c0,1.2,0.8,2.2,2.1,2.2c0.6,0,1.1-0.3,1.5-0.8
	l0.6,0.5c-0.2,0.2-0.8,1-2.1,1c-1.8,0-2.9-1.5-2.9-2.9c0-1.8,1.2-3,2.9-3c0.7,0,1.5,0.3,2,0.9L50.2,35.5z"/>
<path class="st0" d="M53.1,37.1c0-1.7,1.2-3,3-3c1.7,0,3,1.3,3,3s-1.2,3-3,3C54.4,40.1,53.1,38.8,53.1,37.1z M58.2,37.1
	c0-1.2-0.8-2.3-2.1-2.3s-2.1,1-2.1,2.3c0,1.2,0.8,2.3,2.1,2.3S58.2,38.3,58.2,37.1z"/>
<path class="st0" d="M61.8,34.3h1l3.1,4.7l0,0v-4.7h0.8v5.6h-1l-3.2-4.7l0,0v4.7h-0.8L61.8,34.3L61.8,34.3z"/>
<path class="st0" d="M69.9,38.7c0.3,0.4,0.7,0.6,1.2,0.6s1.1-0.3,1.1-0.9c0-1.3-2.8-0.5-2.8-2.7c0-0.7,0.6-1.6,1.9-1.6
	c0.6,0,1.2,0.1,1.6,0.6l-0.6,0.6c-0.2-0.3-0.6-0.5-1-0.5c-0.8,0-1.1,0.5-1.1,0.9c0,1.4,2.8,0.6,2.8,2.6c0,1.1-0.9,1.8-2,1.8
	c-0.7,0-1.4-0.2-1.8-0.8L69.9,38.7z"/>
<path class="st0" d="M76.4,34.3v3.5c0,0.7,0.4,1.6,1.4,1.6c1.1,0,1.4-0.9,1.4-1.6v-3.5H80v3.6c0,1.3-1,2.2-2.2,2.2s-2.2-0.9-2.2-2.2
	v-3.6H76.4z"/>
<path class="st0" d="M83,34.3h0.8v4.9h2.6v0.7H83V34.3z"/>
<path class="st0" d="M89.2,35h-1.8v-0.7h4.4V35H90v4.9h-0.8V35z"/>
<path class="st0" d="M94.2,34.3H95v5.6h-0.8V34.3z"/>
<path class="st0" d="M98,34.3h1l3.2,4.6l0,0v-4.7h0.8v5.7h-1l-3.2-4.7l0,0v4.7H98V34.3z"/>
<path class="st0" d="M110.8,36.8v2.8c-0.6,0.3-1.5,0.5-2.1,0.5c-1.9,0-3-1.4-3-3c0-1.7,1.2-3,3-3c1,0,1.7,0.3,2.1,0.7l-0.5,0.6
	c-0.5-0.4-1-0.6-1.6-0.6c-1.3,0-2.1,1-2.1,2.3s1,2.3,2.2,2.3c0.5,0,1-0.1,1.4-0.3v-1.6h-1.3v-0.7H110.8z"/>
<path class="st0" d="M117.7,34.3h3.7V35h-2.9v1.7h2.7v0.7h-2.7v1.8h3v0.7h-3.8C117.7,39.9,117.7,34.3,117.7,34.3z"/>
<path class="st0" d="M124.1,34.3h1l3.1,4.7l0,0v-4.7h0.8v5.6h-1l-3.2-4.7l0,0v4.7H124L124.1,34.3L124.1,34.3z"/>
<path class="st0" d="M136.9,36.8v2.8c-0.6,0.3-1.5,0.5-2.1,0.5c-1.9,0-3-1.4-3-3c0-1.7,1.2-3,2.9-3c1,0,1.7,0.3,2.1,0.7l-0.5,0.6
	c-0.5-0.4-1-0.6-1.6-0.6c-1.3,0-2.1,1-2.1,2.3s1,2.3,2.2,2.3c0.5,0,1-0.1,1.4-0.3v-1.6h-1.3v-0.7H136.9z"/>
<path class="st0" d="M139.9,34.3h0.8v5.6h-0.8V34.3z"/>
<path class="st0" d="M143.8,34.3h1l3.1,4.7l0,0v-4.7h0.8v5.6h-1l-3.2-4.7l0,0v4.7h-0.8L143.8,34.3L143.8,34.3z"/>
<path class="st0" d="M151.7,34.3h3.7V35h-2.9v1.7h2.7v0.7h-2.7v1.8h3v0.7h-3.8V34.3z"/>
<path class="st0" d="M158.2,34.3h3.7V35H159v1.7h2.7v0.7H159v1.8h3v0.7h-3.8V34.3z"/>
<path class="st0" d="M164.7,34.3h2c1.4,0,1.8,0.9,1.8,1.6s-0.5,1.4-1.4,1.5l1.6,2.6h-1l-1.4-2.5h-0.9v2.4h-0.8L164.7,34.3
	L164.7,34.3z M165.5,36.8h1c0.6,0,1.2-0.1,1.2-0.9s-0.6-0.9-1.2-0.9h-1V36.8z"/>
<path class="st0" d="M171.4,38.7c0.3,0.4,0.7,0.6,1.2,0.6s1.1-0.3,1.1-0.9c0-1.3-2.8-0.5-2.8-2.7c0-0.7,0.6-1.6,1.9-1.6
	c0.6,0,1.2,0.1,1.6,0.6l-0.6,0.6c-0.2-0.3-0.6-0.5-1-0.5c-0.8,0-1.1,0.5-1.1,0.9c0,1.4,2.8,0.6,2.8,2.6c0,1.1-0.9,1.8-2,1.8
	c-0.7,0-1.4-0.2-1.8-0.8L171.4,38.7z"/>
<circle class="st2" cx="114.2" cy="8.4" r="2"/>
<circle class="st1" cx="113.2" cy="10.4" r="2"/>
<rect x="45.6" y="44.4" class="st2" width="128.9" height="0.6"/>
</svg>
