<?xml version="1.0" encoding="utf-8"?>
<!-- Generator: Adobe Illustrator 20.1.0, SVG Export Plug-In . SVG Version: 6.00 Build 0)  -->
<svg version="1.1" id="Layer_1" xmlns="http://www.w3.org/2000/svg" xmlns:xlink="http://www.w3.org/1999/xlink" x="0px" y="0px"
	 viewBox="0 0 200 50" style="enable-background:new 0 0 200 50;" xml:space="preserve">
<style type="text/css">
	.st0{display:none;}
	.st1{fill:#FFFFFF;}
	.st2{display:none;fill:#FFFFFF;}
	.st3{fill:none;stroke:#FFFFFF;stroke-miterlimit:10;}
</style>
<path class="st0" d="M64.8,18.2H72v2.1H61l7.4-12.9h-6.2V5.2h9.9L64.8,18.2z"/>
<path class="st0" d="M76.9,5.2v9.1c0,1.3,0.2,2.2,0.6,2.8c0.6,0.9,1.5,1.3,2.7,1.3s2-0.4,2.7-1.3c0.4-0.6,0.6-1.5,0.6-2.8V5.2h2.3
	v9.7c0,1.6-0.5,2.9-1.5,3.9c-1.1,1.1-2.5,1.7-4.1,1.7s-3-0.6-4.1-1.7c-1-1-1.5-2.3-1.5-3.9V5.2H76.9z"/>
<path class="st0" d="M90.2,5.2l4.2,10.4l4.2-10.4h2.5l-6.8,16.2L87.7,5.2H90.2z"/>
<path class="st0" d="M105.2,5.2v15.1h-2.3V5.2H105.2z"/>
<path class="st0" d="M120,6.1v2.7c-1.3-1.1-2.7-1.7-4.1-1.7c-1.5,0-2.9,0.6-3.9,1.7c-1.1,1.1-1.6,2.5-1.6,4.1s0.5,2.9,1.6,4
	s2.4,1.6,3.9,1.6c0.8,0,1.5-0.1,2-0.4c0.3-0.1,0.6-0.3,1-0.5c0.3-0.2,0.7-0.5,1.1-0.8v2.7c-1.3,0.7-2.7,1.1-4.1,1.1
	c-2.2,0-4-0.8-5.5-2.3s-2.3-3.3-2.3-5.5c0-1.9,0.6-3.6,1.9-5.1c1.6-1.8,3.6-2.8,6.1-2.8C117.4,5,118.7,5.3,120,6.1z"/>
<path class="st0" d="M146.3,6.1v2.7c-1.3-1.1-2.7-1.7-4.1-1.7c-1.5,0-2.9,0.6-3.9,1.7c-1.1,1.1-1.6,2.5-1.6,4.1s0.5,2.9,1.6,4
	c1.1,1.1,2.4,1.6,3.9,1.6c0.8,0,1.5-0.1,2-0.4c0.3-0.1,0.6-0.3,1-0.5c0.3-0.2,0.7-0.5,1.1-0.8v2.7c-1.3,0.7-2.7,1.1-4.1,1.1
	c-2.2,0-4-0.8-5.5-2.3s-2.3-3.3-2.3-5.5c0-1.9,0.6-3.6,1.9-5.1c1.6-1.8,3.6-2.8,6.1-2.8C143.8,5,145.1,5.3,146.3,6.1z"/>
<path class="st0" d="M158.4,16.7H152l-1.7,3.7h-2.5l7.5-16l7.2,16H160L158.4,16.7z M157.5,14.5l-2.2-5.1l-2.3,5.1H157.5z"/>
<path class="st0" d="M169.5,13.9l4.7,6.4h-2.8l-4.3-6.2h-0.4v6.2h-2.3V5.2h2.7c2,0,3.4,0.4,4.3,1.1c1,0.8,1.5,1.9,1.5,3.3
	c0,1.1-0.3,2-0.9,2.8C171.3,13.2,170.5,13.7,169.5,13.9z M166.7,12.2h0.7c2.2,0,3.2-0.8,3.2-2.5c0-1.5-1-2.3-3.1-2.3h-0.8
	L166.7,12.2L166.7,12.2z"/>
<path class="st0" d="M181.5,13.9l4.7,6.4h-2.8l-4.3-6.2h-0.4v6.2h-2.3V5.2h2.7c2,0,3.4,0.4,4.3,1.1c1,0.8,1.5,1.9,1.5,3.3
	c0,1.1-0.3,2-0.9,2.8S182.5,13.7,181.5,13.9z M178.7,12.2h0.7c2.2,0,3.2-0.8,3.2-2.5c0-1.5-1-2.3-3.1-2.3h-0.8L178.7,12.2
	L178.7,12.2z"/>
<path class="st1" d="M59.5,20.1h5.9v1.7h-9.1l6.1-10.6h-5.1V9.4h8.2L59.5,20.1z"/>
<path class="st1" d="M69.4,9.4v7.5c0,1.1,0.2,1.8,0.5,2.3c0.5,0.7,1.2,1.1,2.2,1.1c1,0,1.6-0.3,2.2-1.1c0.3-0.5,0.5-1.2,0.5-2.3V9.4
	h1.9v8c0,1.3-0.4,2.4-1.2,3.2c-0.9,0.9-2.1,1.4-3.4,1.4c-1.3,0-2.5-0.5-3.4-1.4c-0.8-0.8-1.2-1.9-1.2-3.2v-8H69.4z"/>
<path class="st1" d="M80.4,9.4l3.5,8.6l3.5-8.6h2.1l-5.6,13.3L78.3,9.4H80.4z"/>
<path class="st1" d="M92.7,9.4v12.4h-1.9V9.4H92.7z"/>
<path class="st1" d="M104.9,10.2v2.2c-1.1-0.9-2.2-1.4-3.4-1.4c-1.2,0-2.4,0.5-3.2,1.4c-0.9,0.9-1.3,2.1-1.3,3.4s0.4,2.4,1.3,3.3
	s2,1.3,3.2,1.3c0.7,0,1.2-0.1,1.6-0.3c0.2-0.1,0.5-0.2,0.8-0.4c0.2-0.2,0.6-0.4,0.9-0.7v2.2c-1.1,0.6-2.2,0.9-3.4,0.9
	c-1.8,0-3.3-0.7-4.5-1.9c-1.2-1.2-1.9-2.7-1.9-4.5c0-1.6,0.5-3,1.6-4.2c1.3-1.5,3-2.3,5-2.3C102.8,9.3,103.9,9.5,104.9,10.2z"/>
<path class="st1" d="M126.6,10.2v2.2c-1.1-0.9-2.2-1.4-3.4-1.4c-1.2,0-2.4,0.5-3.2,1.4c-0.9,0.9-1.3,2.1-1.3,3.4s0.4,2.4,1.3,3.3
	c0.9,0.9,2,1.3,3.2,1.3c0.7,0,1.2-0.1,1.6-0.3c0.2-0.1,0.5-0.2,0.8-0.4c0.2-0.2,0.6-0.4,0.9-0.7v2.2c-1.1,0.6-2.2,0.9-3.4,0.9
	c-1.8,0-3.3-0.7-4.5-1.9c-1.2-1.2-1.9-2.7-1.9-4.5c0-1.6,0.5-3,1.6-4.2c1.3-1.5,3-2.3,5-2.3C124.5,9.3,125.6,9.5,126.6,10.2z"/>
<path class="st1" d="M136.6,18.9h-5.3l-1.4,3h-2.1L134,8.8l5.9,13.2h-2.1L136.6,18.9z M135.8,17.1l-1.8-4.2l-1.9,4.2H135.8z"/>
<path class="st1" d="M145.7,16.6l3.9,5.3h-2.3l-3.5-5.1h-0.3v5.1h-1.9V9.4h2.2c1.6,0,2.8,0.3,3.5,0.9c0.8,0.7,1.2,1.6,1.2,2.7
	c0,0.9-0.2,1.6-0.7,2.3C147.2,16,146.5,16.4,145.7,16.6z M143.4,15.2h0.6c1.8,0,2.6-0.7,2.6-2.1c0-1.2-0.8-1.9-2.6-1.9h-0.7
	L143.4,15.2L143.4,15.2z"/>
<path class="st1" d="M155.6,16.6l3.9,5.3h-2.3l-3.5-5.1h-0.3v5.1h-1.9V9.4h2.2c1.6,0,2.8,0.3,3.5,0.9c0.8,0.7,1.2,1.6,1.2,2.7
	c0,0.9-0.2,1.6-0.7,2.3S156.4,16.4,155.6,16.6z M153.3,15.2h0.6c1.8,0,2.6-0.7,2.6-2.1c0-1.2-0.8-1.9-2.6-1.9h-0.7L153.3,15.2
	L153.3,15.2z"/>
<path class="st0" d="M64,39.9c-0.3-0.4-0.8-0.6-1.4-0.6c-1.3,0-2.1,1-2.1,2.3c0,1.2,0.8,2.2,2.1,2.2c0.6,0,1.1-0.3,1.5-0.8l0.6,0.5
	c-0.2,0.2-0.8,1-2.1,1c-1.8,0-2.9-1.5-2.9-2.9c0-1.8,1.2-3,2.9-3c0.7,0,1.5,0.3,2,0.9L64,39.9z"/>
<path class="st0" d="M66.9,41.5c0-1.7,1.2-3,3-3c1.7,0,3,1.3,3,3c0,1.7-1.2,3-3,3C68.2,44.5,66.9,43.2,66.9,41.5z M72,41.5
	c0-1.2-0.8-2.3-2.1-2.3c-1.3,0-2.1,1-2.1,2.3c0,1.2,0.8,2.3,2.1,2.3C71.2,43.8,72,42.7,72,41.5z"/>
<path class="st0" d="M75.6,38.7h1l3.1,4.7l0,0v-4.7h0.8v5.6h-1l-3.2-4.7l0,0v4.7h-0.8L75.6,38.7L75.6,38.7z"/>
<path class="st0" d="M83.7,43.1c0.3,0.4,0.7,0.6,1.2,0.6s1.1-0.3,1.1-0.9c0-1.3-2.8-0.5-2.8-2.7c0-0.7,0.6-1.6,1.9-1.6
	c0.6,0,1.2,0.1,1.6,0.6l-0.6,0.6c-0.2-0.3-0.6-0.5-1-0.5c-0.8,0-1.1,0.5-1.1,0.9c0,1.4,2.8,0.6,2.8,2.6c0,1.1-0.9,1.8-2,1.8
	c-0.7,0-1.4-0.2-1.8-0.8L83.7,43.1z"/>
<path class="st0" d="M90.2,38.7v3.5c0,0.7,0.4,1.6,1.4,1.6c1.1,0,1.4-0.9,1.4-1.6v-3.5h0.8v3.6c0,1.3-1,2.2-2.2,2.2
	s-2.2-0.9-2.2-2.2v-3.6H90.2z"/>
<path class="st0" d="M96.8,38.7h0.8v4.9h2.6v0.7h-3.4V38.7z"/>
<path class="st0" d="M103,39.4h-1.8v-0.7h4.4v0.7h-1.8v4.9H103V39.4z"/>
<path class="st0" d="M108,38.7h0.8v5.6H108V38.7z"/>
<path class="st0" d="M111.8,38.7h1l3.2,4.6l0,0v-4.7h0.8v5.7h-1l-3.2-4.7l0,0v4.7h-0.8V38.7z"/>
<path class="st0" d="M124.6,41.2V44c-0.6,0.3-1.5,0.5-2.1,0.5c-1.9,0-3-1.4-3-3c0-1.7,1.2-3,3-3c1,0,1.7,0.3,2.1,0.7l-0.5,0.6
	c-0.5-0.4-1-0.6-1.6-0.6c-1.3,0-2.1,1-2.1,2.3c0,1.3,1,2.3,2.2,2.3c0.5,0,1-0.1,1.4-0.3v-1.6h-1.3v-0.7H124.6z"/>
<path class="st0" d="M131.5,38.7h3.7v0.7h-2.9v1.7h2.7v0.7h-2.7v1.8h3v0.7h-3.8C131.5,44.3,131.5,38.7,131.5,38.7z"/>
<path class="st0" d="M137.9,38.7h1l3.1,4.7l0,0v-4.7h0.8v5.6h-1l-3.2-4.7l0,0v4.7h-0.8L137.9,38.7L137.9,38.7z"/>
<path class="st0" d="M150.7,41.2V44c-0.6,0.3-1.5,0.5-2.1,0.5c-1.9,0-3-1.4-3-3c0-1.7,1.2-3,2.9-3c1,0,1.7,0.3,2.1,0.7l-0.5,0.6
	c-0.5-0.4-1-0.6-1.6-0.6c-1.3,0-2.1,1-2.1,2.3c0,1.3,1,2.3,2.2,2.3c0.5,0,1-0.1,1.4-0.3v-1.6h-1.3v-0.7H150.7z"/>
<path class="st0" d="M153.7,38.7h0.8v5.6h-0.8V38.7z"/>
<path class="st0" d="M157.6,38.7h1l3.1,4.7l0,0v-4.7h0.8v5.6h-1l-3.2-4.7l0,0v4.7h-0.8L157.6,38.7L157.6,38.7z"/>
<path class="st0" d="M165.5,38.7h3.7v0.7h-2.9v1.7h2.7v0.7h-2.7v1.8h3v0.7h-3.8V38.7z"/>
<path class="st0" d="M172,38.7h3.7v0.7h-2.9v1.7h2.7v0.7h-2.7v1.8h3v0.7H172V38.7z"/>
<path class="st0" d="M178.5,38.7h2c1.4,0,1.8,0.9,1.8,1.6s-0.5,1.4-1.4,1.5l1.6,2.6h-1l-1.4-2.5h-0.9v2.4h-0.8L178.5,38.7
	L178.5,38.7z M179.3,41.2h1c0.6,0,1.2-0.1,1.2-0.9s-0.6-0.9-1.2-0.9h-1V41.2z"/>
<path class="st0" d="M185.2,43.1c0.3,0.4,0.7,0.6,1.2,0.6s1.1-0.3,1.1-0.9c0-1.3-2.8-0.5-2.8-2.7c0-0.7,0.6-1.6,1.9-1.6
	c0.6,0,1.2,0.1,1.6,0.6l-0.6,0.6c-0.2-0.3-0.6-0.5-1-0.5c-0.8,0-1.1,0.5-1.1,0.9c0,1.4,2.8,0.6,2.8,2.6c0,1.1-0.9,1.8-2,1.8
	c-0.7,0-1.4-0.2-1.8-0.8L185.2,43.1z"/>
<circle class="st2" cx="128" cy="12.8" r="2"/>
<circle class="st1" cx="111.5" cy="15.7" r="1.6"/>
<rect x="59.4" y="48.8" class="st2" width="128.9" height="0.6"/>
<path class="st1" d="M60.1,29.2h-2.6l-0.7,1.5h-1l3-6.5l2.9,6.5h-1L60.1,29.2z M59.8,28.4l-0.9-2.1L58,28.4H59.8z"/>
<path class="st1" d="M65,30.7v-6.5l4.4,4.6v-4.2h0.9V31l-4.4-4.6v4.3C65.9,30.7,65,30.7,65,30.7z"/>
<path class="st1" d="M74.2,30.7v-6.1h1.2c0.6,0,1.1,0.1,1.5,0.2s0.7,0.3,1.1,0.6c0.7,0.6,0.9,1.3,0.9,2.2s-0.3,1.7-1,2.3
	c-0.3,0.2-0.7,0.5-1.1,0.6c-0.3,0.1-0.8,0.2-1.4,0.2L74.2,30.7L74.2,30.7z M75.1,29.9h0.4c0.4,0,0.7-0.1,1-0.2
	c0.2-0.1,0.5-0.2,0.7-0.4c0.4-0.4,0.7-1,0.7-1.6s-0.2-1.2-0.7-1.6c-0.4-0.3-1-0.6-1.8-0.6h-0.3V29.9z"/>
<path class="st1" d="M93.1,29.2h-2.6l-0.7,1.5h-1l3-6.5l2.9,6.5h-1L93.1,29.2z M92.7,28.4l-0.9-2.1l-0.9,2.1H92.7z"/>
<path class="st1" d="M101.3,25.5l-0.7,0.4c-0.2-0.2-0.2-0.4-0.4-0.5s-0.3-0.2-0.5-0.2c-0.2,0-0.5,0.1-0.7,0.2
	c-0.2,0.2-0.2,0.3-0.2,0.6c0,0.3,0.2,0.6,0.7,0.7l0.6,0.2c0.5,0.2,0.8,0.4,1.1,0.7c0.2,0.2,0.3,0.7,0.3,1.1c0,0.6-0.2,1-0.6,1.4
	c-0.4,0.3-0.8,0.6-1.4,0.6c-0.5,0-1-0.2-1.3-0.5c-0.3-0.3-0.6-0.7-0.7-1.3l0.9-0.2c0.1,0.3,0.1,0.6,0.2,0.7c0.2,0.2,0.5,0.4,0.8,0.4
	c0.2,0,0.5-0.1,0.7-0.2c0.2-0.2,0.2-0.4,0.2-0.7c0-0.1,0-0.2-0.1-0.3c0-0.1-0.1-0.2-0.2-0.2c-0.1-0.1-0.2-0.2-0.2-0.2
	c-0.1-0.1-0.2-0.2-0.4-0.2l-0.6-0.2c-0.8-0.3-1.2-0.9-1.2-1.6c0-0.5,0.2-0.8,0.5-1.2c0.3-0.3,0.8-0.5,1.3-0.5
	C100.4,24.5,101,24.8,101.3,25.5z"/>
<path class="st1" d="M108.5,25.5l-0.7,0.4c-0.2-0.2-0.2-0.4-0.4-0.5s-0.3-0.2-0.5-0.2c-0.2,0-0.5,0.1-0.7,0.2
	c-0.2,0.2-0.2,0.3-0.2,0.6c0,0.3,0.2,0.6,0.7,0.7l0.6,0.2c0.5,0.2,0.8,0.4,1.1,0.7c0.2,0.2,0.3,0.7,0.3,1.1c0,0.6-0.2,1-0.6,1.4
	c-0.4,0.3-0.8,0.6-1.4,0.6c-0.5,0-1-0.2-1.3-0.5c-0.3-0.3-0.6-0.7-0.7-1.3l0.9-0.2c0.1,0.3,0.1,0.6,0.2,0.7c0.2,0.2,0.5,0.4,0.8,0.4
	c0.2,0,0.5-0.1,0.7-0.2c0.2-0.2,0.2-0.4,0.2-0.7c0-0.1,0-0.2-0.1-0.3c0-0.1-0.1-0.2-0.2-0.2c-0.1-0.1-0.2-0.2-0.2-0.2
	c-0.1-0.1-0.2-0.2-0.4-0.2l-0.6-0.2c-0.8-0.3-1.2-0.9-1.2-1.6c0-0.5,0.2-0.8,0.5-1.2c0.3-0.3,0.8-0.5,1.3-0.5
	C107.6,24.5,108.1,24.8,108.5,25.5z"/>
<path class="st1" d="M111.8,27.6c0-0.8,0.3-1.6,0.9-2.2c0.7-0.6,1.4-0.9,2.2-0.9c0.9,0,1.6,0.3,2.2,0.9c0.7,0.7,0.9,1.4,0.9,2.2
	c0,0.9-0.3,1.6-0.9,2.2c-0.7,0.6-1.4,0.9-2.3,0.9c-0.8,0-1.5-0.2-2.1-0.8C112.2,29.4,111.8,28.6,111.8,27.6z M112.8,27.6
	c0,0.7,0.2,1.2,0.7,1.6c0.4,0.4,1,0.7,1.6,0.7c0.7,0,1.2-0.2,1.6-0.7c0.4-0.4,0.7-1,0.7-1.6s-0.2-1.2-0.7-1.6
	c-0.4-0.4-1-0.7-1.6-0.7c-0.7,0-1.2,0.2-1.6,0.7C113,26.5,112.8,27,112.8,27.6z"/>
<path class="st1" d="M126.3,24.9V26c-0.5-0.4-1.1-0.7-1.6-0.7c-0.7,0-1.2,0.2-1.6,0.7c-0.4,0.4-0.7,1-0.7,1.6s0.2,1.2,0.7,1.6
	c0.4,0.4,1,0.7,1.6,0.7c0.3,0,0.6-0.1,0.8-0.2c0.2-0.1,0.2-0.2,0.4-0.2c0.2-0.1,0.2-0.2,0.4-0.3v1.1c-0.5,0.3-1.1,0.4-1.6,0.4
	c-0.9,0-1.6-0.3-2.2-0.9c-0.6-0.6-0.9-1.3-0.9-2.2c0-0.7,0.2-1.5,0.7-2.1c0.7-0.7,1.5-1.2,2.5-1.2C125.3,24.5,125.8,24.6,126.3,24.9
	z"/>
<path class="st1" d="M130.8,24.6v6.1h-0.9v-6.1H130.8z"/>
<path class="st1" d="M138.2,29.2h-2.6l-0.7,1.5h-1l3-6.5l2.9,6.5h-1L138.2,29.2z M137.9,28.4l-0.9-2.1l-0.9,2.1H137.9z"/>
<path class="st1" d="M144.4,25.5v5.2h-0.9v-5.2h-1.4v-0.8h3.7v0.8H144.4z"/>
<path class="st1" d="M152.4,25.5h-2.5v1.4h2.4v0.8h-2.4v2.1h2.5v0.8H149v-6.1h3.4V25.5z"/>
<path class="st1" d="M159.5,25.5l-0.7,0.4c-0.2-0.2-0.2-0.4-0.4-0.5s-0.3-0.2-0.5-0.2c-0.2,0-0.5,0.1-0.7,0.2
	c-0.2,0.2-0.2,0.3-0.2,0.6c0,0.3,0.2,0.6,0.7,0.7l0.6,0.2c0.5,0.2,0.8,0.4,1.1,0.7c0.2,0.2,0.3,0.7,0.3,1.1c0,0.6-0.2,1-0.6,1.4
	c-0.4,0.3-0.8,0.6-1.4,0.6c-0.5,0-1-0.2-1.3-0.5c-0.3-0.3-0.6-0.7-0.7-1.3l0.9-0.2c0.1,0.3,0.1,0.6,0.2,0.7c0.2,0.2,0.5,0.4,0.8,0.4
	c0.2,0,0.5-0.1,0.7-0.2c0.2-0.2,0.2-0.4,0.2-0.7c0-0.1,0-0.2-0.1-0.3c0-0.1-0.1-0.2-0.2-0.2c-0.1-0.1-0.2-0.2-0.2-0.2
	c-0.1-0.1-0.2-0.2-0.4-0.2l-0.6-0.2c-0.8-0.3-1.2-0.9-1.2-1.6c0-0.5,0.2-0.8,0.5-1.2c0.3-0.3,0.8-0.5,1.3-0.5
	C158.6,24.5,159,24.8,159.5,25.5z"/>
<g>
	<path class="st3" d="M46.7,8.9c-3.5,0-6.3,2.8-6.3,6.3c0,1,0.2,1.9,0.6,2.7c0,0,5.7,11.2,5.7,11.2l5.6-11.1
		c0.4-0.9,0.7-1.8,0.7-2.9C53.1,11.8,50.2,8.9,46.7,8.9z M46.7,17.7c-1.3,0-2.4-1.1-2.4-2.4s1.1-2.4,2.4-2.4c1.3,0,2.4,1.1,2.4,2.4
		S48.1,17.7,46.7,17.7z"/>
</g>
</svg>
