<?xml version="1.0" encoding="utf-8"?>
<!-- Generator: Adobe Illustrator 20.1.0, SVG Export Plug-In . SVG Version: 6.00 Build 0)  -->
<svg version="1.1" id="Layer_1" xmlns="http://www.w3.org/2000/svg" xmlns:xlink="http://www.w3.org/1999/xlink" x="0px" y="0px"
	 viewBox="0 0 172.4 41.2" style="enable-background:new 0 0 172.4 41.2;" xml:space="preserve">
<style type="text/css">
	.st0{display:none;}
	.st1{fill:#FF3D3D;}
	.st2{fill:url(#SVGID_1_);}
	.st3{display:none;fill:#FFFFFF;}
	.st4{fill:#18385C;}
</style>
<path class="st0" d="M51,13.8h7.2v2.1h-11L54.6,3h-6.2V0.8h9.9L51,13.8z"/>
<path class="st0" d="M63.1,0.8v9.1c0,1.3,0.2,2.2,0.6,2.8c0.6,0.9,1.5,1.3,2.7,1.3s2-0.4,2.7-1.3c0.4-0.6,0.6-1.5,0.6-2.8V0.8H72
	v9.7c0,1.6-0.5,2.9-1.5,3.9c-1.1,1.1-2.5,1.7-4.1,1.7s-3-0.6-4.1-1.7c-1-1-1.5-2.3-1.5-3.9V0.8H63.1z"/>
<path class="st0" d="M76.4,0.8l4.2,10.4l4.2-10.4h2.5L80.5,17L73.9,0.8H76.4z"/>
<path class="st0" d="M91.4,0.8v15.1h-2.3V0.8H91.4z"/>
<path class="st0" d="M106.2,1.7v2.7c-1.3-1.1-2.7-1.7-4.1-1.7c-1.5,0-2.9,0.6-3.9,1.7c-1.1,1.1-1.6,2.5-1.6,4.1s0.5,2.9,1.6,4
	s2.4,1.6,3.9,1.6c0.8,0,1.5-0.1,2-0.4c0.3-0.1,0.6-0.3,1-0.5c0.3-0.2,0.7-0.5,1.1-0.8v2.7c-1.3,0.7-2.7,1.1-4.1,1.1
	c-2.2,0-4-0.8-5.5-2.3s-2.3-3.3-2.3-5.5c0-1.9,0.6-3.6,1.9-5.1c1.6-1.8,3.6-2.8,6.1-2.8C103.6,0.6,104.9,0.9,106.2,1.7z"/>
<path class="st0" d="M132.5,1.7v2.7c-1.3-1.1-2.7-1.7-4.1-1.7c-1.5,0-2.9,0.6-3.9,1.7c-1.1,1.1-1.6,2.5-1.6,4.1s0.5,2.9,1.6,4
	s2.4,1.6,3.9,1.6c0.8,0,1.5-0.1,2-0.4c0.3-0.1,0.6-0.3,1-0.5c0.3-0.2,0.7-0.5,1.1-0.8v2.7c-1.3,0.7-2.7,1.1-4.1,1.1
	c-2.2,0-4-0.8-5.5-2.3s-2.3-3.3-2.3-5.5c0-1.9,0.6-3.6,1.9-5.1c1.6-1.8,3.6-2.8,6.1-2.8C130,0.6,131.3,0.9,132.5,1.7z"/>
<path class="st0" d="M144.6,12.3h-6.4l-1.7,3.7H134l7.5-16l7.2,16h-2.5L144.6,12.3z M143.7,10.1L141.5,5l-2.3,5.1H143.7z"/>
<path class="st0" d="M155.7,9.5l4.7,6.4h-2.8l-4.3-6.2h-0.4v6.2h-2.3V0.8h2.7c2,0,3.4,0.4,4.3,1.1c1,0.8,1.5,1.9,1.5,3.3
	c0,1.1-0.3,2-0.9,2.8C157.5,8.8,156.7,9.3,155.7,9.5z M152.9,7.8h0.7c2.2,0,3.2-0.8,3.2-2.5c0-1.5-1-2.3-3.1-2.3h-0.8L152.9,7.8
	L152.9,7.8z"/>
<path class="st0" d="M167.7,9.5l4.7,6.4h-2.8l-4.3-6.2h-0.4v6.2h-2.3V0.8h2.7c2,0,3.4,0.4,4.3,1.1c1,0.8,1.5,1.9,1.5,3.3
	c0,1.1-0.3,2-0.9,2.8S168.7,9.3,167.7,9.5z M164.9,7.8h0.7c2.2,0,3.2-0.8,3.2-2.5c0-1.5-1-2.3-3.1-2.3h-0.8L164.9,7.8L164.9,7.8z"/>
<path class="st1" d="M50,15.8h7.2v2.1h-11L53.6,5h-6.2V2.8h9.9L50,15.8z"/>
<path class="st1" d="M62.1,2.8v9.1c0,1.3,0.2,2.2,0.6,2.8c0.6,0.9,1.5,1.3,2.7,1.3s2-0.4,2.7-1.3c0.4-0.6,0.6-1.5,0.6-2.8V2.8H71
	v9.7c0,1.6-0.5,2.9-1.5,3.9c-1.1,1.1-2.5,1.7-4.1,1.7s-3-0.6-4.1-1.7c-1-1-1.5-2.3-1.5-3.9V2.8H62.1z"/>
<path class="st1" d="M75.4,2.8l4.2,10.4l4.2-10.4h2.5L79.5,19L72.9,2.8H75.4z"/>
<path class="st1" d="M90.4,2.8v15.1h-2.3V2.8H90.4z"/>
<path class="st1" d="M105.2,3.7v2.7c-1.3-1.1-2.7-1.7-4.1-1.7c-1.5,0-2.9,0.6-3.9,1.7c-1.1,1.1-1.6,2.5-1.6,4.1s0.5,2.9,1.6,4
	s2.4,1.6,3.9,1.6c0.8,0,1.5-0.1,2-0.4c0.3-0.1,0.6-0.3,1-0.5c0.3-0.2,0.7-0.5,1.1-0.8v2.7c-1.3,0.7-2.7,1.1-4.1,1.1
	c-2.2,0-4-0.8-5.5-2.3s-2.3-3.3-2.3-5.5c0-1.9,0.6-3.6,1.9-5.1c1.6-1.8,3.6-2.8,6.1-2.8C102.6,2.6,103.9,2.9,105.2,3.7z"/>
<path class="st1" d="M131.5,3.7v2.7c-1.3-1.1-2.7-1.7-4.1-1.7c-1.5,0-2.9,0.6-3.9,1.7c-1.1,1.1-1.6,2.5-1.6,4.1s0.5,2.9,1.6,4
	s2.4,1.6,3.9,1.6c0.8,0,1.5-0.1,2-0.4c0.3-0.1,0.6-0.3,1-0.5c0.3-0.2,0.7-0.5,1.1-0.8v2.7c-1.3,0.7-2.7,1.1-4.1,1.1
	c-2.2,0-4-0.8-5.5-2.3s-2.3-3.3-2.3-5.5c0-1.9,0.6-3.6,1.9-5.1c1.6-1.8,3.6-2.8,6.1-2.8C129,2.6,130.3,2.9,131.5,3.7z"/>
<path class="st1" d="M143.6,14.3h-6.4l-1.7,3.7H133l7.5-16l7.2,16h-2.5L143.6,14.3z M142.7,12.1L140.5,7l-2.3,5.1H142.7z"/>
<path class="st1" d="M154.7,11.5l4.7,6.4h-2.8l-4.3-6.2h-0.4v6.2h-2.3V2.8h2.7c2,0,3.4,0.4,4.3,1.1c1,0.8,1.5,1.9,1.5,3.3
	c0,1.1-0.3,2-0.9,2.8C156.5,10.8,155.7,11.3,154.7,11.5z M151.9,9.8h0.7c2.2,0,3.2-0.8,3.2-2.5c0-1.5-1-2.3-3.1-2.3h-0.8L151.9,9.8
	L151.9,9.8z"/>
<path class="st1" d="M166.7,11.5l4.7,6.4h-2.8l-4.3-6.2h-0.4v6.2h-2.3V2.8h2.7c2,0,3.4,0.4,4.3,1.1c1,0.8,1.5,1.9,1.5,3.3
	c0,1.1-0.3,2-0.9,2.8S167.7,11.3,166.7,11.5z M163.9,9.8h0.7c2.2,0,3.2-0.8,3.2-2.5c0-1.5-1-2.3-3.1-2.3h-0.8L163.9,9.8L163.9,9.8z"
	/>
<path class="st0" d="M50.2,35.5c-0.3-0.4-0.8-0.6-1.4-0.6c-1.3,0-2.1,1-2.1,2.3c0,1.2,0.8,2.2,2.1,2.2c0.6,0,1.1-0.3,1.5-0.8
	l0.6,0.5c-0.2,0.2-0.8,1-2.1,1c-1.8,0-2.9-1.5-2.9-2.9c0-1.8,1.2-3,2.9-3c0.7,0,1.5,0.3,2,0.9L50.2,35.5z"/>
<path class="st0" d="M53.1,37.1c0-1.7,1.2-3,3-3c1.7,0,3,1.3,3,3s-1.2,3-3,3C54.4,40.1,53.1,38.8,53.1,37.1z M58.2,37.1
	c0-1.2-0.8-2.3-2.1-2.3s-2.1,1-2.1,2.3c0,1.2,0.8,2.3,2.1,2.3S58.2,38.3,58.2,37.1z"/>
<path class="st0" d="M61.8,34.3h1l3.1,4.7l0,0v-4.7h0.8v5.6h-1l-3.2-4.7l0,0v4.7h-0.8L61.8,34.3L61.8,34.3z"/>
<path class="st0" d="M69.9,38.7c0.3,0.4,0.7,0.6,1.2,0.6s1.1-0.3,1.1-0.9c0-1.3-2.8-0.5-2.8-2.7c0-0.7,0.6-1.6,1.9-1.6
	c0.6,0,1.2,0.1,1.6,0.6l-0.6,0.6c-0.2-0.3-0.6-0.5-1-0.5c-0.8,0-1.1,0.5-1.1,0.9c0,1.4,2.8,0.6,2.8,2.6c0,1.1-0.9,1.8-2,1.8
	c-0.7,0-1.4-0.2-1.8-0.8L69.9,38.7z"/>
<path class="st0" d="M76.4,34.3v3.5c0,0.7,0.4,1.6,1.4,1.6c1.1,0,1.4-0.9,1.4-1.6v-3.5H80v3.6c0,1.3-1,2.2-2.2,2.2s-2.2-0.9-2.2-2.2
	v-3.6H76.4z"/>
<path class="st0" d="M83,34.3h0.8v4.9h2.6v0.7H83V34.3z"/>
<path class="st0" d="M89.2,35h-1.8v-0.7h4.4V35H90v4.9h-0.8V35z"/>
<path class="st0" d="M94.2,34.3H95v5.6h-0.8V34.3z"/>
<path class="st0" d="M98,34.3h1l3.2,4.6l0,0v-4.7h0.8v5.7h-1l-3.2-4.7l0,0v4.7H98V34.3z"/>
<path class="st0" d="M110.8,36.8v2.8c-0.6,0.3-1.5,0.5-2.1,0.5c-1.9,0-3-1.4-3-3c0-1.7,1.2-3,3-3c1,0,1.7,0.3,2.1,0.7l-0.5,0.6
	c-0.5-0.4-1-0.6-1.6-0.6c-1.3,0-2.1,1-2.1,2.3s1,2.3,2.2,2.3c0.5,0,1-0.1,1.4-0.3v-1.6h-1.3v-0.7H110.8z"/>
<path class="st0" d="M117.7,34.3h3.7V35h-2.9v1.7h2.7v0.7h-2.7v1.8h3v0.7h-3.8C117.7,39.9,117.7,34.3,117.7,34.3z"/>
<path class="st0" d="M124.1,34.3h1l3.1,4.7l0,0v-4.7h0.8v5.6h-1l-3.2-4.7l0,0v4.7H124L124.1,34.3L124.1,34.3z"/>
<path class="st0" d="M136.9,36.8v2.8c-0.6,0.3-1.5,0.5-2.1,0.5c-1.9,0-3-1.4-3-3c0-1.7,1.2-3,2.9-3c1,0,1.7,0.3,2.1,0.7l-0.5,0.6
	c-0.5-0.4-1-0.6-1.6-0.6c-1.3,0-2.1,1-2.1,2.3s1,2.3,2.2,2.3c0.5,0,1-0.1,1.4-0.3v-1.6h-1.3v-0.7H136.9z"/>
<path class="st0" d="M139.9,34.3h0.8v5.6h-0.8V34.3z"/>
<path class="st0" d="M143.8,34.3h1l3.1,4.7l0,0v-4.7h0.8v5.6h-1l-3.2-4.7l0,0v4.7h-0.8L143.8,34.3L143.8,34.3z"/>
<path class="st0" d="M151.7,34.3h3.7V35h-2.9v1.7h2.7v0.7h-2.7v1.8h3v0.7h-3.8V34.3z"/>
<path class="st0" d="M158.2,34.3h3.7V35H159v1.7h2.7v0.7H159v1.8h3v0.7h-3.8V34.3z"/>
<path class="st0" d="M164.7,34.3h2c1.4,0,1.8,0.9,1.8,1.6s-0.5,1.4-1.4,1.5l1.6,2.6h-1l-1.4-2.5h-0.9v2.4h-0.8L164.7,34.3
	L164.7,34.3z M165.5,36.8h1c0.6,0,1.2-0.1,1.2-0.9s-0.6-0.9-1.2-0.9h-1V36.8z"/>
<path class="st0" d="M171.4,38.7c0.3,0.4,0.7,0.6,1.2,0.6s1.1-0.3,1.1-0.9c0-1.3-2.8-0.5-2.8-2.7c0-0.7,0.6-1.6,1.9-1.6
	c0.6,0,1.2,0.1,1.6,0.6l-0.6,0.6c-0.2-0.3-0.6-0.5-1-0.5c-0.8,0-1.1,0.5-1.1,0.9c0,1.4,2.8,0.6,2.8,2.6c0,1.1-0.9,1.8-2,1.8
	c-0.7,0-1.4-0.2-1.8-0.8L171.4,38.7z"/>
<rect x="5.9" y="6.6" transform="matrix(0.7071 -0.7071 0.7071 0.7071 -8.8809 20.4597)" class="st1" width="28.7" height="28.7"/>
<linearGradient id="SVGID_1_" gradientUnits="userSpaceOnUse" x1="6.3" y1="24.5009" x2="43.8" y2="24.5009">
	<stop  offset="0" style="stop-color:#FFFFFF"/>
	<stop  offset="1" style="stop-color:#FF3D3D"/>
</linearGradient>
<path class="st2" d="M43.3,24.4c0.2,0.1,0.3,0.1,0.5,0.2v-0.1c-0.3,0.6-0.7,1.2-1,1.8c-0.1,0.2-0.2,0.6-0.4,0.7
	c0,0.2-0.1,0.3-0.3,0.2c-0.2,0-0.3-0.1-0.5-0.1c-1.4-0.4-2.8-1-4.2-1.4s-2.8-0.5-4.2-0.8c-1.7-0.4-3.4-0.7-5.2-0.9
	c-7.3-0.8-14.9-0.1-21.7,2.8c0.7-1,2.1-1.7,3.1-2.2s2.3-0.8,3.4-1.2c2-0.7,3.9-0.9,5.9-1.3c1.9-0.3,4.1-0.4,6.1-0.3
	c2.8,0.1,5.5,0.3,8.3,0.7C36.6,23,40,23.3,43.3,24.4z"/>
<circle class="st3" cx="114.2" cy="8.4" r="2"/>
<circle class="st1" cx="113.2" cy="10.4" r="2"/>
<rect x="45.6" y="44.4" class="st3" width="128.9" height="0.6"/>
<path class="st4" d="M49.8,33.7c-0.3-0.4-0.8-0.6-1.3-0.6c-1.2,0-2.1,1-2.1,2.2s0.8,2.1,2.1,2.1c0.6,0,1.1-0.3,1.4-0.7l0.6,0.5
	c-0.2,0.2-0.8,1-2.1,1c-1.8,0-2.8-1.5-2.8-2.9c0-1.7,1.2-2.9,2.9-2.9c0.7,0,1.5,0.3,1.9,0.9L49.8,33.7z"/>
<path class="st4" d="M52.6,35.3c0-1.6,1.2-2.9,2.9-2.9s2.9,1.3,2.9,2.9s-1.2,2.9-2.9,2.9S52.6,36.9,52.6,35.3z M57.6,35.3
	c0-1.2-0.8-2.2-2.1-2.2s-2.1,1-2.1,2.2s0.8,2.2,2.1,2.2S57.6,36.5,57.6,35.3z"/>
<path class="st4" d="M61,32.5h1l3,4.5l0,0v-4.5h0.7V38h-0.9l-3.1-4.5l0,0V38H61V32.5z"/>
<path class="st4" d="M68.9,36.9c0.3,0.4,0.7,0.6,1.2,0.6s1.1-0.3,1.1-0.9c0-1.3-2.7-0.5-2.7-2.6c0-0.6,0.5-1.5,1.9-1.5
	c0.6,0,1.2,0.1,1.6,0.6l-0.6,0.6c-0.2-0.3-0.6-0.5-1-0.5c-0.8,0-1.1,0.5-1.1,0.8c0,1.4,2.7,0.6,2.7,2.5c0,1.1-0.9,1.7-1.9,1.7
	c-0.7,0-1.4-0.2-1.8-0.8L68.9,36.9z"/>
<path class="st4" d="M75.3,32.5v3.4c0,0.7,0.3,1.6,1.4,1.6c1,0,1.4-0.9,1.4-1.6v-3.4h0.7V36c0,1.3-0.9,2.2-2.1,2.2s-2.1-0.9-2.1-2.2
	v-3.5H75.3z"/>
<path class="st4" d="M81.7,32.5h0.7v4.8H85V38h-3.3V32.5z"/>
<path class="st4" d="M87.8,33.2H86v-0.7h4.3v0.7h-1.8V38h-0.7V33.2z"/>
<path class="st4" d="M92.6,32.5h0.7V38h-0.7V32.5z"/>
<path class="st4" d="M96.4,32.5h1l3,4.5l0,0v-4.5h0.7V38h-0.9l-3.1-4.5l0,0V38h-0.7V32.5z"/>
<path class="st4" d="M108.8,34.9v2.7c-0.5,0.3-1.4,0.5-2.1,0.5c-1.9,0-3-1.3-3-2.9c0-1.6,1.2-2.9,2.9-2.9c1,0,1.6,0.3,2.1,0.7
	l-0.5,0.6c-0.5-0.4-1-0.6-1.5-0.6c-1.3,0-2.1,1-2.1,2.2s0.9,2.2,2.1,2.2c0.5,0,1-0.1,1.4-0.3v-1.5h-1.2v-0.7
	C106.9,34.9,108.8,34.9,108.8,34.9z"/>
<path class="st4" d="M115.5,32.5h3.6v0.7h-2.8v1.6h2.6v0.7h-2.6v1.8h3V38h-3.7L115.5,32.5L115.5,32.5z"/>
<path class="st4" d="M121.8,32.5h1l3,4.5l0,0v-4.5h0.7V38h-1l-3.1-4.5l0,0V38h-0.7L121.8,32.5L121.8,32.5z"/>
<path class="st4" d="M134.2,34.9v2.7c-0.5,0.3-1.4,0.5-2.1,0.5c-1.9,0-2.9-1.3-2.9-2.9c0-1.6,1.2-2.9,2.9-2.9c1,0,1.6,0.3,2.1,0.7
	l-0.5,0.6c-0.5-0.4-1-0.6-1.5-0.6c-1.3,0-2.1,1-2.1,2.2s0.9,2.2,2.1,2.2c0.5,0,1-0.1,1.4-0.3v-1.5h-1.2v-0.7H134.2z"/>
<path class="st4" d="M137.1,32.5h0.7V38h-0.7V32.5z"/>
<path class="st4" d="M140.9,32.5h1l3,4.5l0,0v-4.5h0.7V38h-0.9l-3.1-4.5l0,0V38h-0.7V32.5z"/>
<path class="st4" d="M148.6,32.5h3.6v0.7h-2.8v1.6h2.6v0.7h-2.6v1.8h3V38h-3.7v-5.5H148.6z"/>
<path class="st4" d="M154.9,32.5h3.6v0.7h-2.8v1.6h2.6v0.7h-2.6v1.8h3V38H155v-5.5H154.9z"/>
<path class="st4" d="M161.3,32.5h1.9c1.4,0,1.8,0.9,1.8,1.5c0,0.7-0.5,1.4-1.4,1.5l1.6,2.5h-0.9l-1.4-2.4H162V38h-0.7V32.5z
	 M162,34.9h1c0.6,0,1.2-0.1,1.2-0.9c0-0.7-0.6-0.9-1.2-0.9h-1V34.9z"/>
<path class="st4" d="M167.7,36.9c0.3,0.4,0.7,0.6,1.2,0.6s1.1-0.3,1.1-0.9c0-1.3-2.7-0.5-2.7-2.6c0-0.6,0.5-1.5,1.9-1.5
	c0.6,0,1.2,0.1,1.6,0.6l-0.6,0.6c-0.2-0.3-0.6-0.5-1-0.5c-0.8,0-1.1,0.5-1.1,0.8c0,1.4,2.7,0.6,2.7,2.5c0,1.1-0.9,1.7-1.9,1.7
	c-0.7,0-1.4-0.2-1.8-0.8L167.7,36.9z"/>
<path class="st1" d="M50.8,26.8h-3.2l-0.8,1.8h-1.2l3.7-7.9l3.5,7.9h-1.2L50.8,26.8z M50.4,25.8l-1.1-2.5l-1.1,2.5H50.4z"/>
<path class="st1" d="M56.7,28.6v-7.9l5.4,5.6v-5.1h1.1V29l-5.4-5.6v5.2C57.8,28.6,56.7,28.6,56.7,28.6z"/>
<path class="st1" d="M67.9,28.6v-7.4h1.5c0.7,0,1.3,0.1,1.8,0.2s0.9,0.4,1.3,0.7c0.8,0.7,1.1,1.6,1.1,2.7s-0.4,2.1-1.2,2.8
	c-0.4,0.3-0.8,0.6-1.3,0.7c-0.4,0.1-1,0.2-1.7,0.2L67.9,28.6L67.9,28.6z M69,27.6h0.5c0.5,0,0.9-0.1,1.2-0.2
	c0.3-0.1,0.6-0.3,0.9-0.5c0.5-0.5,0.8-1.2,0.8-2s-0.3-1.5-0.8-2c-0.5-0.4-1.2-0.7-2.2-0.7H69V27.6z"/>
<path class="st1" d="M90.8,26.8h-3.2l-0.8,1.8h-1.2l3.7-7.9l3.5,7.9h-1.2L90.8,26.8z M90.4,25.8l-1.1-2.5l-1.1,2.5H90.4z"/>
<path class="st1" d="M100.8,22.3l-0.9,0.5c-0.2-0.3-0.3-0.5-0.5-0.6S99,22,98.8,22c-0.3,0-0.6,0.1-0.8,0.3c-0.2,0.2-0.3,0.4-0.3,0.7
	c0,0.4,0.3,0.7,0.8,0.9l0.7,0.3c0.6,0.2,1,0.5,1.3,0.9c0.3,0.3,0.4,0.8,0.4,1.3c0,0.7-0.2,1.2-0.7,1.7c-0.5,0.4-1,0.7-1.7,0.7
	c-0.6,0-1.2-0.2-1.6-0.6s-0.7-0.9-0.8-1.6l1.1-0.2c0.1,0.4,0.1,0.7,0.3,0.9c0.2,0.3,0.6,0.5,1,0.5c0.3,0,0.6-0.1,0.9-0.3
	c0.2-0.2,0.3-0.5,0.3-0.9c0-0.1,0-0.3-0.1-0.4c0-0.1-0.1-0.2-0.2-0.3c-0.1-0.1-0.2-0.2-0.3-0.3c-0.1-0.1-0.3-0.2-0.5-0.3L97.9,25
	c-1-0.4-1.5-1.1-1.5-1.9c0-0.6,0.2-1,0.6-1.4s1-0.6,1.6-0.6C99.7,21.1,100.4,21.5,100.8,22.3z"/>
<path class="st1" d="M109.5,22.3l-0.9,0.5c-0.2-0.3-0.3-0.5-0.5-0.6s-0.4-0.2-0.6-0.2c-0.3,0-0.6,0.1-0.8,0.3
	c-0.2,0.2-0.3,0.4-0.3,0.7c0,0.4,0.3,0.7,0.8,0.9l0.7,0.3c0.6,0.2,1,0.5,1.3,0.9c0.3,0.3,0.4,0.8,0.4,1.3c0,0.7-0.2,1.2-0.7,1.7
	c-0.5,0.4-1,0.7-1.7,0.7c-0.6,0-1.2-0.2-1.6-0.6s-0.7-0.9-0.8-1.6l1.1-0.2c0.1,0.4,0.1,0.7,0.3,0.9c0.2,0.3,0.6,0.5,1,0.5
	c0.3,0,0.6-0.1,0.9-0.3c0.2-0.2,0.3-0.5,0.3-0.9c0-0.1,0-0.3-0.1-0.4c0-0.1-0.1-0.2-0.2-0.3c-0.1-0.1-0.2-0.2-0.3-0.3
	c-0.1-0.1-0.3-0.2-0.5-0.3l-0.7-0.3c-1-0.4-1.5-1.1-1.5-1.9c0-0.6,0.2-1,0.6-1.4s1-0.6,1.6-0.6C108.4,21.1,109,21.5,109.5,22.3z"/>
<path class="st1" d="M113.6,24.9c0-1,0.4-1.9,1.1-2.7c0.8-0.7,1.7-1.1,2.7-1.1c1.1,0,2,0.4,2.7,1.1c0.8,0.8,1.1,1.7,1.1,2.7
	c0,1.1-0.4,2-1.1,2.7c-0.8,0.7-1.7,1.1-2.8,1.1c-1,0-1.8-0.3-2.6-1C114,27,113.6,26.1,113.6,24.9z M114.7,24.9c0,0.8,0.3,1.5,0.8,2
	s1.2,0.8,1.9,0.8c0.8,0,1.4-0.3,2-0.8c0.5-0.5,0.8-1.2,0.8-2s-0.3-1.4-0.8-2c-0.5-0.5-1.2-0.8-1.9-0.8c-0.8,0-1.4,0.3-1.9,0.8
	C115,23.5,114.7,24.1,114.7,24.9z"/>
<path class="st1" d="M131.1,21.6v1.3c-0.6-0.5-1.3-0.8-2-0.8c-0.8,0-1.4,0.3-1.9,0.8s-0.8,1.2-0.8,2s0.3,1.4,0.8,2
	c0.5,0.5,1.2,0.8,1.9,0.8c0.4,0,0.7-0.1,1-0.2c0.2-0.1,0.3-0.2,0.5-0.3c0.2-0.1,0.3-0.2,0.5-0.4v1.3c-0.6,0.4-1.3,0.5-2,0.5
	c-1.1,0-2-0.4-2.7-1.1s-1.1-1.6-1.1-2.7c0-0.9,0.3-1.8,0.9-2.5c0.8-0.9,1.8-1.4,3-1.4C129.9,21.1,130.5,21.2,131.1,21.6z"/>
<path class="st1" d="M136.6,21.2v7.4h-1.1v-7.4H136.6z"/>
<path class="st1" d="M145.6,26.8h-3.2l-0.8,1.8h-1.2l3.7-7.9l3.5,7.9h-1.2L145.6,26.8z M145.2,25.8l-1.1-2.5l-1.1,2.5H145.2z"/>
<path class="st1" d="M153.1,22.3v6.3H152v-6.3h-1.7v-1h4.5v1H153.1z"/>
<path class="st1" d="M162.8,22.3h-3V24h2.9v1h-2.9v2.5h3v1h-4.1v-7.4h4.1V22.3z"/>
<path class="st1" d="M171.4,22.3l-0.9,0.5c-0.2-0.3-0.3-0.5-0.5-0.6s-0.4-0.2-0.6-0.2c-0.3,0-0.6,0.1-0.8,0.3
	c-0.2,0.2-0.3,0.4-0.3,0.7c0,0.4,0.3,0.7,0.8,0.9l0.7,0.3c0.6,0.2,1,0.5,1.3,0.9c0.3,0.3,0.4,0.8,0.4,1.3c0,0.7-0.2,1.2-0.7,1.7
	c-0.5,0.4-1,0.7-1.7,0.7c-0.6,0-1.2-0.2-1.6-0.6c-0.4-0.4-0.7-0.9-0.8-1.6l1.1-0.2c0.1,0.4,0.1,0.7,0.3,0.9c0.2,0.3,0.6,0.5,1,0.5
	c0.3,0,0.6-0.1,0.9-0.3c0.2-0.2,0.3-0.5,0.3-0.9c0-0.1,0-0.3-0.1-0.4c0-0.1-0.1-0.2-0.2-0.3c-0.1-0.1-0.2-0.2-0.3-0.3
	c-0.1-0.1-0.3-0.2-0.5-0.3l-0.7-0.3c-1-0.4-1.5-1.1-1.5-1.9c0-0.6,0.2-1,0.6-1.4c0.4-0.4,1-0.6,1.6-0.6
	C170.3,21.1,170.9,21.5,171.4,22.3z"/>
</svg>
