<?xml version="1.0" encoding="utf-8"?>
<!-- Generator: Adobe Illustrator 20.1.0, SVG Export Plug-In . SVG Version: 6.00 Build 0)  -->
<svg version="1.1" id="Layer_1" xmlns="http://www.w3.org/2000/svg" xmlns:xlink="http://www.w3.org/1999/xlink" x="0px" y="0px"
	 viewBox="0 0 792 612" style="enable-background:new 0 0 792 612;" xml:space="preserve">
<style type="text/css">
	.st0{fill:#17385C;}
</style>
<g id="uUC4nF.tif">
	<g>
		<path class="st0" d="M251,47c8.4,3.5,14.1,9.7,18.2,17.7c18.3,35,36.6,70,55.3,104.7c7.7,14.2,2.7,30.3-5.9,38.6
			c-7.8,7.6-15.1,15.6-23.1,22.9c-5.8,5.3-6.5,11-4.1,18c6.8,19.8,17.8,37.4,30.6,53.6c22.8,28.9,48.6,54.9,77.8,77.3
			c15.1,11.6,30.9,22,49.2,28.2c8.6,2.9,15.2,1.8,21.4-5.3c7.3-8.4,15.4-16.1,23.3-24c12.5-12.5,29.2-14.8,44.4-5.9
			c32.9,19.3,65.7,38.7,98.6,58.2c4,2.4,7.9,4.9,10.9,8.7c7.4,9.1,7.9,20.6,0.7,29.9c-6.9,8.8-15.5,16.1-23.3,24
			c-15.9,15.9-32.4,31.3-47.8,47.6c-14.8,15.7-32.6,19.5-53.2,17.8c-44.7-3.7-84.7-20.8-123.2-42.4c-45.7-25.7-85.3-59-122.3-95.9
			c-35.6-35.5-67.4-73.8-93-117.1c-20.1-34.1-35.4-70.1-42.5-109.3c-2.5-13.6-3.6-27.4-1.4-41.2c1.8-11.5,7.8-20.8,15.9-28.8
			c22.1-22.2,44.3-44.3,66.4-66.4c4.6-4.6,9.7-8.6,16.1-10.6C243.7,47,247.3,47,251,47z"/>
	</g>
</g>
</svg>
