<?xml version="1.0" encoding="utf-8"?>
<!-- Generator: Adobe Illustrator 20.1.0, SVG Export Plug-In . SVG Version: 6.00 Build 0)  -->
<svg version="1.1" id="Layer_1" xmlns="http://www.w3.org/2000/svg" xmlns:xlink="http://www.w3.org/1999/xlink" x="0px" y="0px"
	 viewBox="0 0 383.2 37.6" style="enable-background:new 0 0 383.2 37.6;" xml:space="preserve">
<style type="text/css">
	.st0{fill:#FFFFFF;}
</style>
<g id="_x30_6-SINGLE-WHITE">
	<path id="Instagram_3_" class="st0" d="M378.8,0h-27.9c-2.4,0-4.4,1.9-4.4,4.3v28c0,2.4,2,4.3,4.4,4.3h27.9c2.4,0,4.4-1.9,4.4-4.3
		v-28C383.1,1.9,381.2,0,378.8,0z M372.8,5.7c0-0.6,0.5-1.1,1.1-1.1h3.4c0.6,0,1.1,0.5,1.1,1.1v3.4c0,0.6-0.5,1.1-1.1,1.1h-3.4
		c-0.6,0-1.1-0.5-1.1-1.1V5.7z M364.8,11.3c3.9,0,7.1,3.1,7.1,7s-3.2,7-7.1,7c-3.9,0-7-3.1-7-7C357.8,14.5,360.9,11.3,364.8,11.3z
		 M379.7,32.1c0,0.6-0.5,1.1-1.1,1.1h-27.5c-0.6,0-1.1-0.5-1.1-1.1V14.9h4.6c-0.6,0.9-0.8,2.5-0.8,3.5c0,6.1,5,11.1,11.2,11.1
		s11.2-5,11.2-11.1c0-1-0.1-2.6-0.9-3.5h4.6v17.2H379.7z"/>
	<path id="Twitter_3_" class="st0" d="M300.1,3.2c-1.5,0.9-3.1,1.6-4.9,1.9c-1.4-1.5-3.4-2.5-5.6-2.5c-4.2,0-7.7,3.5-7.7,7.9
		c0,0.6,0.1,1.2,0.2,1.8c-6.4-0.3-12-3.5-15.8-8.2c-0.7,1.2-1,2.5-1,4c0,2.7,1.4,5.1,3.4,6.6c-1.3,0-2.4-0.4-3.5-1v0.1
		c0,3.8,2.6,7,6.2,7.7c-0.6,0.2-1.3,0.3-2,0.3c-0.5,0-1,0-1.4-0.1c1,3.1,3.8,5.4,7.2,5.5c-2.6,2.1-5.9,3.4-9.5,3.4
		c-0.6,0-1.2,0-1.8-0.1c3.4,2.2,7.4,3.5,11.8,3.5c14.1,0,21.9-12,21.9-22.4c0-0.3,0-0.7,0-1c1.5-1.1,2.8-2.5,3.8-4.1
		c-1.4,0.6-2.9,1.1-4.4,1.2C298.3,6.5,299.5,5,300.1,3.2z"/>
	<g id="LinkedIn_3_">
		<rect x="180" y="12.7" class="st0" width="7.2" height="22.8"/>
		<path class="st0" d="M206.8,12.4c-4.1,0-6.7,2.2-7.2,3.8v-3.6h-8.1c0.1,1.9,0,22.8,0,22.8h8.1V23.1c0-0.7,0-1.4,0.2-1.9
			c0.6-1.4,1.7-2.8,3.9-2.8c2.8,0,4.1,2.1,4.1,5.2v11.8h8.2V22.8C215.9,15.7,211.9,12.4,206.8,12.4z"/>
		<path class="st0" d="M183.4,1.9c-2.7,0-4.4,1.7-4.4,4c0,2.2,1.7,3.9,4.3,3.9h0.1c2.7,0,4.4-1.7,4.4-4
			C187.7,3.6,186.1,1.9,183.4,1.9z"/>
	</g>
	<path id="Facebook_2_" class="st0" d="M128.1,35.6c0,1.1-0.9,2-2,2h-9.4V23.4h4.8l0.7-5.5h-5.5v-3.5c0-1.6,0.4-2.7,2.7-2.7h2.9v-5
		c-0.5-0.1-2.2-0.2-4.3-0.2c-4.2,0-7.1,2.6-7.1,7.3v4.1h-4.8v5.5h4.8v14.2H93.3c-1.1,0-2-0.9-2-2V2.9c0-1.1,0.9-2,2-2H126
		c1.1,0,2,0.9,2,2L128.1,35.6L128.1,35.6z"/>
	<g id="Google_x2B__2_">
		<path class="st0" d="M12.8,16.4v5.1c0,0,4.9,0,6.9,0c-1.1,3.3-2.8,5.1-6.9,5.1c-4.2,0-7.5-3.4-7.5-7.6c0-4.2,3.3-7.6,7.5-7.6
			c2.2,0,3.7,0.8,5,1.9c1.1-1.1,1-1.2,3.6-3.7c-2.3-2.1-5.3-3.3-8.6-3.3C5.7,6.3,0,12,0,19.1s5.7,12.8,12.8,12.8
			c10.6,0,13.2-9.2,12.3-15.4L12.8,16.4L12.8,16.4z"/>
		<polygon class="st0" points="35.9,16.6 35.9,12.2 32.8,12.2 32.8,16.6 28.2,16.6 28.2,19.8 32.8,19.8 32.8,24.4 35.9,24.4 
			35.9,19.8 40.4,19.8 40.4,16.6 		"/>
	</g>
</g>
</svg>
