<?xml version="1.0" encoding="utf-8"?>
<!-- Generator: Adobe Illustrator 20.1.0, SVG Export Plug-In . SVG Version: 6.00 Build 0)  -->
<svg version="1.1" id="Layer_1" xmlns="http://www.w3.org/2000/svg" xmlns:xlink="http://www.w3.org/1999/xlink" x="0px" y="0px"
	 viewBox="0 0 112.4 33.7" style="enable-background:new 0 0 112.4 33.7;" xml:space="preserve">
<style type="text/css">
	.st0{fill:#943837;}
</style>
<g id="_x30_6-SINGLE-WHITE">
	<g id="LinkedIn_3_">
		<rect x="76.4" y="10.8" class="st0" width="7.2" height="22.8"/>
		<path class="st0" d="M103.2,10.5c-4.1,0-6.7,2.2-7.2,3.8v-3.6h-8.1c0.1,1.9,0,22.8,0,22.8H96V21.2c0-0.7,0-1.4,0.2-1.9
			c0.6-1.4,1.7-2.8,3.9-2.8c2.8,0,4.1,2.1,4.1,5.2v11.8h8.2V20.9C112.3,13.8,108.3,10.5,103.2,10.5z"/>
		<path class="st0" d="M79.8,0c-2.7,0-4.4,1.7-4.4,4c0,2.2,1.7,3.9,4.3,3.9h0.1c2.7,0,4.4-1.7,4.4-4C84.1,1.7,82.5,0,79.8,0z"/>
	</g>
</g>
<g id="WuT6lf.tif">
	<g>
		<path class="st0" d="M52.1,4.3c0,8.8,0,17.7,0,26.5c-0.3,0.9-0.8,1.7-1.5,2.3c-0.4,0.4-0.9,0.6-1.4,0.6c-15.4,0-30.9,0-46.3,0
			c-0.6,0-1-0.2-1.4-0.6c-0.7-0.6-1.2-1.4-1.5-2.3C0,22,0,13.2,0,4.3c0.1,0.1,0.3,0.2,0.4,0.2C2.7,6.4,5.1,8.2,7.5,10
			c3.1,2.4,6.2,4.8,9.4,7.1c3,2.3,5.9,4.5,8.9,6.8c0.3,0.2,0.4,0.2,0.7,0c0.8-0.6,1.5-1.2,2.3-1.7c2.8-2.2,5.7-4.4,8.5-6.5
			c4.1-3.2,8.3-6.3,12.4-9.5C50.4,5.6,51.2,4.9,52.1,4.3z"/>
		<path class="st0" d="M26,0.2c7.6,0,15.2,0,22.8,0c0.5,0,0.9,0,1.4,0.1c0.2,0.1,0.5,0.1,0.5,0.4c0.1,0.3-0.2,0.4-0.3,0.5
			c-1.9,1.7-3.9,3.1-5.9,4.6c-3.2,2.4-6.3,4.8-9.5,7.2c-2.9,2.2-5.7,4.3-8.6,6.5c-0.3,0.2-0.5,0.2-0.8,0c-2.3-1.7-4.6-3.5-6.8-5.2
			c-2.7-2-5.4-4.1-8.1-6.1c-2.6-2-5.2-4-7.8-6C2.4,1.9,2,1.6,1.6,1.2S1.3,0.6,1.7,0.4C2,0.3,2.3,0.3,2.6,0.3c5.7,0,11.4,0,17.1,0
			C21.8,0.2,23.9,0.2,26,0.2z"/>
	</g>
</g>
</svg>
